<svg xmlns="http://www.w3.org/2000/svg" width="542" height="108" fill="none" viewBox="0 0 542 108"><path fill="#fff" d="M21.21 47.15C25.8767 47.15 29.3533 48.3167 31.64 50.65C33.9267 52.9367 35.07 55.9 35.07 59.54C35.07 60.1467 35 60.73 34.86 61.29C34.0667 61.71 33.0867 61.92 31.92 61.92C30.8 61.92 29.68 61.8733 28.56 61.78C28.6067 61.4067 28.63 60.9167 28.63 60.31C28.63 57.5567 27.9767 55.3633 26.67 53.73C25.3633 52.0967 23.5433 51.28 21.21 51.28C13.4633 51.28 9.59 57.5567 9.59 70.11C9.59 82.6167 13.4633 88.87 21.21 88.87C23.03 88.87 24.92 88.4267 26.88 87.54C28.84 86.6533 30.4967 85.44 31.85 83.9C33.2967 85.0667 34.23 86.91 34.65 89.43C30.4967 92.51 26.0167 94.05 21.21 94.05C15.5633 94.05 11.34 92.4867 8.54 89.36C6.20667 86.7933 4.76 82.8733 4.2 77.6C3.96667 75.4533 3.85 72.9567 3.85 70.11C3.85 54.8033 9.63667 47.15 21.21 47.15ZM40.6793 76.41C40.6793 65.1633 45.066 59.54 53.8393 59.54C62.6126 59.54 66.9993 65.1633 66.9993 76.41C66.9993 81.59 66.1826 85.6967 64.5493 88.73C62.6826 92.2767 59.1126 94.05 53.8393 94.05C48.566 94.05 44.996 92.2767 43.1293 88.73C41.496 85.6967 40.6793 81.59 40.6793 76.41ZM46.4193 76.27C46.4193 84.7633 48.8926 89.01 53.8393 89.01C58.786 89.01 61.2593 84.7633 61.2593 76.27C61.2593 67.73 58.786 63.46 53.8393 63.46C48.8926 63.46 46.4193 67.73 46.4193 76.27ZM117.177 69.55L117.107 75.29C117.107 81.31 117.573 87.0033 118.507 92.37C116.967 92.9767 115.45 93.28 113.957 93.28C112.51 93.28 111.507 93.2333 110.947 93.14C111.507 86.9333 111.787 81.4733 111.787 76.76C111.787 72 111.483 68.6867 110.877 66.82C110.27 64.9533 108.94 64.02 106.887 64.02C104.833 64.02 102.453 65.56 99.7467 68.64L99.6767 75.29C99.6767 81.31 100.143 87.0033 101.077 92.37C99.5367 92.9767 98.0201 93.28 96.5267 93.28C95.0801 93.28 94.0767 93.2333 93.5167 93.14C94.0767 86.9333 94.3567 81.4733 94.3567 76.76C94.3567 72 94.0534 68.6867 93.4467 66.82C92.8401 64.9533 91.5101 64.02 89.4567 64.02C87.4034 64.02 85.0467 65.5133 82.3867 68.5C82.2934 69.9467 82.2467 72.14 82.2467 75.08C82.2467 82.7333 82.6667 88.5667 83.5067 92.58C81.8267 93.0467 80.3101 93.28 78.9567 93.28C77.6034 93.28 76.6467 93.2333 76.0867 93.14C76.7867 86.7933 77.1367 81.24 77.1367 76.48C77.1367 71.72 76.6701 66.54 75.7367 60.94C77.6034 60.4733 79.0734 60.24 80.1467 60.24C81.2201 60.24 82.0601 60.3333 82.6667 60.52V64.09C83.9734 62.7367 85.4667 61.64 87.1467 60.8C88.8734 59.96 90.5301 59.54 92.1167 59.54C95.9901 59.54 98.3934 61.3367 99.3267 64.93C100.727 63.2967 102.36 61.99 104.227 61.01C106.14 60.03 107.913 59.54 109.547 59.54C112.207 59.54 114.143 60.38 115.357 62.06C116.57 63.6933 117.177 66.19 117.177 69.55ZM170.565 69.55L170.495 75.29C170.495 81.31 170.962 87.0033 171.895 92.37C170.355 92.9767 168.839 93.28 167.345 93.28C165.899 93.28 164.895 93.2333 164.335 93.14C164.895 86.9333 165.175 81.4733 165.175 76.76C165.175 72 164.872 68.6867 164.265 66.82C163.659 64.9533 162.329 64.02 160.275 64.02C158.222 64.02 155.842 65.56 153.135 68.64L153.065 75.29C153.065 81.31 153.532 87.0033 154.465 92.37C152.925 92.9767 151.409 93.28 149.915 93.28C148.469 93.28 147.465 93.2333 146.905 93.14C147.465 86.9333 147.745 81.4733 147.745 76.76C147.745 72 147.442 68.6867 146.835 66.82C146.229 64.9533 144.899 64.02 142.845 64.02C140.792 64.02 138.435 65.5133 135.775 68.5C135.682 69.9467 135.635 72.14 135.635 75.08C135.635 82.7333 136.055 88.5667 136.895 92.58C135.215 93.0467 133.699 93.28 132.345 93.28C130.992 93.28 130.035 93.2333 129.475 93.14C130.175 86.7933 130.525 81.24 130.525 76.48C130.525 71.72 130.059 66.54 129.125 60.94C130.992 60.4733 132.462 60.24 133.535 60.24C134.609 60.24 135.449 60.3333 136.055 60.52V64.09C137.362 62.7367 138.855 61.64 140.535 60.8C142.262 59.96 143.919 59.54 145.505 59.54C149.379 59.54 151.782 61.3367 152.715 64.93C154.115 63.2967 155.749 61.99 157.615 61.01C159.529 60.03 161.302 59.54 162.935 59.54C165.595 59.54 167.532 60.38 168.745 62.06C169.959 63.6933 170.565 66.19 170.565 69.55ZM182.654 83.97L182.724 78.3C182.724 71.16 182.304 65.3733 181.464 60.94C182.537 60.52 183.727 60.31 185.034 60.31C186.341 60.31 187.624 60.38 188.884 60.52C188.184 66.9133 187.834 72.35 187.834 76.83C187.834 81.31 188.137 84.46 188.744 86.28C189.397 88.1 190.797 89.01 192.944 89.01C195.137 89.01 197.657 87.5867 200.504 84.74C200.597 83.34 200.644 81.2633 200.644 78.51C200.644 70.81 200.224 64.9533 199.384 60.94C201.157 60.4733 202.627 60.24 203.794 60.24C204.961 60.24 205.964 60.3333 206.804 60.52C206.104 66.8667 205.754 72.5833 205.754 77.67C205.754 82.71 206.174 87.75 207.014 92.79C205.614 93.21 204.401 93.42 203.374 93.42C202.347 93.42 201.367 93.3733 200.434 93.28L200.294 89.85C196.841 92.65 193.644 94.05 190.704 94.05C187.811 94.05 185.734 93.2333 184.474 91.6C183.261 89.92 182.654 87.3767 182.654 83.97ZM243.061 69.62L242.991 75.29C242.991 81.31 243.457 87.0033 244.391 92.37C242.851 92.9767 241.334 93.28 239.841 93.28C238.394 93.28 237.391 93.2333 236.831 93.14C237.391 86.9333 237.671 81.4733 237.671 76.76C237.671 72 237.321 68.6867 236.621 66.82C235.967 64.9533 234.497 64.02 232.211 64.02C229.924 64.02 227.287 65.5133 224.301 68.5C224.207 69.9467 224.161 72.14 224.161 75.08C224.161 82.7333 224.581 88.5667 225.421 92.58C223.741 93.0467 222.224 93.28 220.871 93.28C219.517 93.28 218.561 93.2333 218.001 93.14C218.701 86.7933 219.051 81.24 219.051 76.48C219.051 71.72 218.584 66.54 217.651 60.94C219.517 60.4733 220.987 60.24 222.061 60.24C223.134 60.24 223.974 60.3333 224.581 60.52V64.09C227.801 61.0567 231.021 59.54 234.241 59.54C237.461 59.54 239.724 60.38 241.031 62.06C242.384 63.6933 243.061 66.2133 243.061 69.62ZM261.485 75.08C261.485 82.7333 261.905 88.5667 262.745 92.58C261.065 93.0467 259.548 93.28 258.195 93.28C256.842 93.28 255.885 93.2333 255.325 93.14C256.025 86.7933 256.375 80.9833 256.375 75.71C256.375 70.39 255.955 65.4667 255.115 60.94C256.702 60.4733 258.125 60.24 259.385 60.24C260.645 60.24 261.695 60.3333 262.535 60.52C261.835 67.7533 261.485 72.6067 261.485 75.08ZM262.815 50.09C262.815 52.9833 261.322 54.43 258.335 54.43C256.002 54.43 254.835 53.24 254.835 50.86C254.835 47.92 256.328 46.45 259.315 46.45C261.648 46.45 262.815 47.6633 262.815 50.09ZM273.014 81.66C273.014 81.66 273.06 76.4567 273.154 66.05C273.154 65.35 273.13 64.8133 273.084 64.44C271.124 64.44 269.724 64.4633 268.884 64.51C268.604 63.7633 268.464 63.04 268.464 62.34C268.464 61.5933 268.51 61.0333 268.604 60.66H272.874L272.524 55.48C273.69 55.1067 274.904 54.92 276.164 54.92C277.47 54.92 278.544 55.0133 279.384 55.2L278.754 60.59C281.32 60.5433 283.91 60.4033 286.524 60.17C286.804 60.7767 286.944 61.4533 286.944 62.2C286.944 62.9 286.85 63.7633 286.664 64.79C284.937 64.6967 282.207 64.6033 278.474 64.51C278.38 65.4433 278.334 66.82 278.334 68.64V82.85C278.334 84.0633 278.38 85.0667 278.474 85.86C278.614 86.6067 278.917 87.3067 279.384 87.96C279.897 88.5667 280.62 88.87 281.554 88.87C283.607 88.87 285.567 88.1467 287.434 86.7C288.414 88.1 288.904 89.99 288.904 92.37C286.337 93.49 284.097 94.05 282.184 94.05C280.317 94.05 278.824 93.7933 277.704 93.28C276.584 92.8133 275.72 92.2533 275.114 91.6C274.507 90.9 274.04 89.9433 273.714 88.73C273.247 87.0033 273.014 84.6467 273.014 81.66ZM306.869 94.26C305.422 98.6 303.765 101.913 301.899 104.2C300.032 106.533 297.815 107.7 295.249 107.7C292.682 107.7 290.279 106.953 288.039 105.46C288.225 102.753 288.995 100.817 290.349 99.65C291.749 101.563 293.452 102.52 295.459 102.52C296.532 102.52 297.745 101.61 299.099 99.79C300.452 97.97 301.549 95.8467 302.389 93.42C301.175 89.1267 299.355 83.83 296.929 77.53C294.549 71.1833 292.262 65.7933 290.069 61.36C291.935 60.5667 293.615 60.17 295.109 60.17C296.649 60.17 297.675 60.1933 298.189 60.24C298.655 66.9133 300.965 75.2433 305.119 85.23H305.399C306.939 82.29 308.432 78.2533 309.879 73.12C311.372 67.9867 312.212 63.7167 312.399 60.31C313.239 60.2167 313.869 60.17 314.289 60.17C316.482 60.17 318.302 60.5667 319.749 61.36C318.582 63.9733 316.505 69.0367 313.519 76.55C310.532 84.0167 308.315 89.92 306.869 94.26ZM408.001 92.09C408.654 86.63 408.981 79.2333 408.981 69.9C408.981 60.52 408.584 53.59 407.791 49.11C411.478 47.8033 415.794 47.15 420.741 47.15C425.734 47.15 429.398 48.27 431.731 50.51C434.064 52.75 435.231 56.04 435.231 60.38C435.231 64.6733 433.738 67.94 430.751 70.18C435.744 72.14 438.241 75.71 438.241 80.89C438.241 89.6633 432.898 94.05 422.211 94.05C416.564 94.05 411.828 93.3967 408.001 92.09ZM418.291 66.96C419.318 67.66 420.881 68.01 422.981 68.01C425.128 68.01 426.691 67.2867 427.671 65.84C428.651 64.3467 429.141 62.3867 429.141 59.96C429.141 57.5333 428.464 55.4567 427.111 53.73C425.804 52.0033 423.611 51.14 420.531 51.14C418.804 51.14 416.891 51.56 414.791 52.4C414.418 56.18 414.231 61.7567 414.231 69.13C414.231 76.5033 414.418 82.6633 414.791 87.61C417.498 88.6833 419.994 89.22 422.281 89.22C428.861 89.22 432.151 86.4433 432.151 80.89C432.151 76.1767 429.981 73.33 425.641 72.35C424.381 72.5833 423.051 72.7 421.651 72.7C420.251 72.7 418.641 72.35 416.821 71.65C416.821 69.5033 417.311 67.94 418.291 66.96ZM446.515 93.14C447.215 87.0733 447.565 79.8867 447.565 71.58C447.565 63.2267 447.495 57.6967 447.355 54.99C447.215 52.2833 446.865 49.2733 446.305 45.96C447.518 45.4933 448.731 45.26 449.945 45.26C451.158 45.26 452.418 45.3067 453.725 45.4C453.025 51.14 452.675 59.7267 452.675 71.16C452.675 82.5933 453.095 89.7333 453.935 92.58C452.395 93.0467 450.971 93.28 449.665 93.28C448.358 93.28 447.308 93.2333 446.515 93.14ZM461.91 76.41C461.91 65.1633 466.296 59.54 475.07 59.54C483.843 59.54 488.23 65.1633 488.23 76.41C488.23 81.59 487.413 85.6967 485.78 88.73C483.913 92.2767 480.343 94.05 475.07 94.05C469.796 94.05 466.226 92.2767 464.36 88.73C462.726 85.6967 461.91 81.59 461.91 76.41ZM467.65 76.27C467.65 84.7633 470.123 89.01 475.07 89.01C480.016 89.01 482.49 84.7633 482.49 76.27C482.49 67.73 480.016 63.46 475.07 63.46C470.123 63.46 467.65 67.73 467.65 76.27ZM506.767 59.54C509.101 59.54 511.131 59.9133 512.857 60.66V59.54C512.857 57.6733 513.231 56.2733 513.977 55.34C514.771 54.4067 516.124 53.94 518.037 53.94C518.364 53.94 518.947 53.9867 519.787 54.08C519.881 54.8267 519.927 55.5967 519.927 56.39C519.927 57.1367 519.787 58.2567 519.507 59.75C519.181 59.7033 518.667 59.68 517.967 59.68C517.267 59.68 516.754 59.9133 516.427 60.38C516.101 60.8 515.914 61.5233 515.867 62.55L515.587 62.48C517.594 64.4867 518.597 67.4733 518.597 71.44C518.597 75.08 517.874 78.1133 516.427 80.54C514.794 83.2467 511.574 84.6 506.767 84.6C504.761 84.6 503.127 84.3667 501.867 83.9C500.887 85.6267 500.164 87.5167 499.697 89.57C500.491 89.71 501.331 89.78 502.217 89.78C503.104 89.78 504.877 89.6167 507.537 89.29C510.197 88.9633 512.111 88.8 513.277 88.8C515.704 88.8 517.664 89.4067 519.157 90.62C520.651 91.8333 521.397 93.7 521.397 96.22C521.397 98.74 520.581 100.933 518.947 102.8C516.101 106.067 511.667 107.7 505.647 107.7C501.587 107.7 498.484 107.187 496.337 106.16C494.191 105.133 493.117 103.22 493.117 100.42C493.117 99.6733 493.164 99.0433 493.257 98.53C494.237 98.1567 495.241 97.97 496.267 97.97C497.341 97.97 498.484 98.0633 499.697 98.25C499.604 98.6233 499.557 99.23 499.557 100.07C499.557 100.957 500.094 101.797 501.167 102.59C502.241 103.43 504.061 103.85 506.627 103.85C509.194 103.85 511.387 103.337 513.207 102.31C515.074 101.283 516.007 99.7433 516.007 97.69C516.007 95.4033 514.771 94.26 512.297 94.26C511.084 94.26 509.171 94.4 506.557 94.68C503.944 95.0067 501.867 95.17 500.327 95.17C498.834 95.17 497.574 94.8433 496.547 94.19C495.567 93.5833 495.077 92.6267 495.077 91.32C495.077 88.8467 496.267 85.8133 498.647 82.22C496.174 80.2133 494.937 76.62 494.937 71.44C494.937 63.5067 498.881 59.54 506.767 59.54ZM500.607 71.51C500.607 77.0167 502.661 79.77 506.767 79.77C510.874 79.77 512.927 77.0167 512.927 71.51C512.927 66.0033 510.874 63.25 506.767 63.25C502.661 63.25 500.607 66.0033 500.607 71.51Z"/><g clip-path="url(#clip0_48_3)"><path fill="#fff" d="M348.773 80.4427C348.773 82.0286 351.052 83.3235 353.836 83.3235H373.538C376.323 83.3235 378.602 82.0286 378.602 80.4427C378.602 78.8567 376.323 77.5618 373.538 77.5618H353.836C351.052 77.5618 348.773 78.8567 348.773 80.4427Z"/><path fill="#fff" d="M349.791 87.459C349.791 89.045 352.069 90.3399 354.854 90.3399H372.232C375.017 90.3399 377.295 89.04 377.295 87.459C377.295 85.8781 375.017 84.5782 372.232 84.5782H354.854C352.069 84.5732 349.791 85.8731 349.791 87.459Z"/><path fill="#fff" d="M351.355 94.36C351.355 95.946 352.743 97.2408 354.439 97.2408C356.135 97.2408 357.523 98.089 357.523 99.1229C357.523 100.157 359.801 101.005 362.586 101.005H364.703C367.488 101.005 369.766 100.157 369.766 99.1229C369.766 98.089 371.133 97.2408 372.804 97.2408C374.475 97.2408 375.837 95.946 375.837 94.36C375.837 92.7741 373.559 91.4792 370.774 91.4792H356.419C353.634 91.4792 351.355 92.7741 351.355 94.36Z"/><path fill="#fff" d="M398.977 23.2675C397.043 18.7305 394.268 14.6551 390.739 11.157C387.21 7.65881 383.098 4.91349 378.521 2.99125C373.791 1.0088 368.758 0 363.578 0H363.432C358.242 0 353.214 1.0088 348.474 2.99627C343.897 4.91349 339.785 7.66383 336.256 11.162C332.727 14.6602 329.957 18.7305 328.023 23.2675C326.018 27.9702 325 32.959 325 38.0983C325 48.3369 332.393 59.539 332.707 60.0108C334.129 62.1488 344.17 75.8654 350.844 75.765H376.156C383.523 75.2632 392.871 62.1438 394.293 60.0108C394.607 59.539 402 48.3318 402 38.0983C402 32.959 400.982 27.9702 398.977 23.2675ZM390.065 57.2454C388.46 59.6544 380.328 70.7512 376.151 70.7512H365.984H360.92H350.844C346.758 70.4501 338.54 59.6544 336.935 57.2504C336.864 57.145 330.063 46.8161 330.063 38.1034C330.063 19.8748 345.016 5.03896 363.401 5.0239C363.467 5.0239 363.533 5.0239 363.599 5.0239C381.984 5.04398 396.937 19.8748 396.937 38.1034C396.937 46.8161 390.136 57.145 390.065 57.2454Z"/><path fill="#FFD500" d="M364.095 41.5914C366.453 41.2122 368.053 39.0106 367.671 36.6739C367.288 34.3373 365.067 32.7505 362.71 33.1297C360.352 33.5089 358.751 35.7106 359.134 38.0472C359.517 40.3838 361.738 41.9706 364.095 41.5914Z"/><path fill="#FFD500" d="M350.773 36.939C350.56 35.624 351.462 34.3844 352.793 34.1736C352.91 34.1535 353.031 34.1435 353.148 34.1435C352.479 34.1284 351.806 34.3894 351.315 34.9164C350.641 35.6341 350.494 36.6479 350.854 37.4961C350.844 37.4258 350.834 37.3606 350.829 37.3003C350.793 37.0644 350.773 36.939 350.773 36.939Z"/><path fill="#FFD500" d="M355.578 36.959C355.578 36.959 355.558 37.0845 355.523 37.3154C355.507 37.4308 355.487 37.5764 355.462 37.747C355.452 37.8323 355.436 37.9227 355.426 38.018C355.416 38.1134 355.401 38.2188 355.391 38.3292C355.366 38.545 355.335 38.7859 355.31 39.0519C355.279 39.3129 355.254 39.599 355.224 39.9001C355.168 40.5074 355.107 41.19 355.052 41.9378C355.047 41.988 355.047 42.0382 355.042 42.0934C356.014 43.1825 357.112 44.4623 358.252 45.8525C358.399 46.0332 358.55 46.2189 358.697 46.3996C358.844 46.5853 358.996 46.771 359.148 46.9617C359.3 47.1524 359.452 47.3381 359.604 47.5288L359.72 47.6744L359.751 47.7095L359.801 47.7697L359.806 47.7747L359.816 47.7848L359.862 47.84C359.928 47.9203 359.999 48.0056 360.064 48.0909C360.201 48.2616 360.333 48.4423 360.454 48.6229C360.581 48.8036 360.697 48.9843 360.804 49.165C360.91 49.3456 361.011 49.5263 361.092 49.702C361.173 49.8777 361.239 50.0433 361.28 50.1788L361.315 50.2942L361.33 50.3394L361.335 50.3494V50.3544V50.3645L361.361 50.4598L361.376 50.5251L361.391 50.5954C361.401 50.6405 361.411 50.6857 361.421 50.7359C361.457 50.9266 361.487 51.1374 361.508 51.3532C361.533 51.569 361.548 51.7898 361.558 52.0157C361.568 52.2415 361.578 52.4674 361.578 52.6932C361.578 52.9191 361.578 53.15 361.573 53.3758C361.568 53.4611 361.568 53.5465 361.563 53.6268C361.563 53.6418 361.563 53.6619 361.558 53.6769C361.553 53.7422 361.553 53.8074 361.548 53.8727C361.548 53.9078 361.543 53.9429 361.543 53.9781C361.543 53.9982 361.543 54.0132 361.538 54.0283C361.538 54.0032 361.538 54.0634 361.538 54.0634V54.0734V54.0935V54.1387L361.533 54.229C361.528 54.2892 361.528 54.3495 361.523 54.4097C361.518 54.5302 361.508 54.6456 361.502 54.766C361.487 55.0019 361.477 55.2378 361.462 55.4737C361.366 57.0396 361.244 58.5202 361.113 59.8401C361.295 60.0309 361.472 60.2165 361.649 60.4022C362.171 60.9443 362.662 61.4361 363.097 61.8728C363.204 61.9782 363.305 62.0786 363.401 62.1739C363.497 62.0786 363.604 61.9782 363.705 61.8728C364.141 61.4412 364.632 60.9493 365.153 60.4022C365.3 60.2517 365.447 60.0961 365.599 59.9355C365.462 58.5954 365.341 57.0798 365.239 55.4737C365.224 55.2378 365.214 55.0069 365.199 54.766C365.194 54.6456 365.184 54.5302 365.179 54.4097C365.173 54.3495 365.173 54.2892 365.168 54.229L365.163 54.1387V54.0935V54.0734V54.0634C365.163 54.0634 365.163 54.0032 365.163 54.0283C365.163 54.0132 365.163 53.9982 365.158 53.9781C365.158 53.9429 365.158 53.9078 365.153 53.8727C365.148 53.8074 365.148 53.7422 365.143 53.6769C365.143 53.6569 365.143 53.6418 365.138 53.6217C365.133 53.5364 365.133 53.4561 365.128 53.3708C365.123 53.1449 365.123 52.9191 365.123 52.6882C365.123 52.4624 365.133 52.2365 365.143 52.0107C365.153 51.7848 365.173 51.564 365.194 51.3532C365.219 51.1374 365.244 50.9316 365.28 50.7359C365.29 50.6857 365.3 50.6405 365.31 50.5954L365.325 50.5251L365.341 50.4598L365.366 50.3645V50.3544V50.3494L365.371 50.3394L365.386 50.2942L365.422 50.1788C365.462 50.0383 365.528 49.8726 365.609 49.702C365.69 49.5263 365.791 49.3507 365.898 49.165C366.004 48.9843 366.125 48.8036 366.247 48.6229C366.368 48.4423 366.5 48.2616 366.637 48.0909C366.703 48.0056 366.774 47.9203 366.839 47.84L366.885 47.7848L366.895 47.7747L366.9 47.7697L366.951 47.7095L366.981 47.6744L367.093 47.5288C367.244 47.3381 367.396 47.1474 367.548 46.9617C367.7 46.776 367.852 46.5853 367.999 46.3996C368.151 46.2139 368.298 46.0332 368.444 45.8525C369.619 44.4171 370.753 43.1022 371.751 41.988C371.751 41.9729 371.751 41.9528 371.746 41.9378C371.69 41.19 371.634 40.5074 371.574 39.9001C371.543 39.599 371.518 39.3129 371.488 39.0519C371.457 38.7909 371.432 38.55 371.407 38.3292C371.391 38.2188 371.381 38.1184 371.371 38.018C371.356 37.9227 371.346 37.8323 371.336 37.747C371.315 37.5764 371.295 37.4358 371.275 37.3154C371.24 37.0845 371.219 36.959 371.219 36.959C371.179 36.7081 371.174 36.4371 371.214 36.1761C371.412 34.9615 372.49 34.1083 373.695 34.1435C372.799 34.1083 371.913 34.5701 371.457 35.4082C371.457 35.4082 371.396 35.5186 371.28 35.7244C371.219 35.8248 371.148 35.9553 371.062 36.1008C371.017 36.1761 370.971 36.2514 370.921 36.3367C370.87 36.422 370.814 36.5073 370.758 36.6027C370.647 36.7934 370.515 36.9992 370.374 37.22C370.237 37.4459 370.08 37.6868 369.913 37.9427C369.584 38.4547 369.204 39.0318 368.784 39.6542C368.05 40.7383 367.184 41.9679 366.232 43.2628V43.2577C366.232 43.2577 365.072 44.8236 363.351 44.8236C361.867 44.8236 360.778 43.6442 360.505 43.318C359.538 42.003 358.657 40.7533 357.907 39.6542C357.487 39.0318 357.107 38.4547 356.778 37.9427C356.616 37.6868 356.459 37.4459 356.317 37.22C356.176 36.9942 356.049 36.7884 355.933 36.6027C355.877 36.5073 355.821 36.422 355.771 36.3367C355.72 36.2514 355.674 36.1711 355.629 36.1008C355.588 36.0306 355.548 35.9653 355.512 35.9051C355.538 35.9954 355.558 36.0858 355.573 36.1761C355.624 36.4371 355.624 36.7081 355.578 36.959Z"/><path fill="#ED7004" d="M348.216 46.7559C350.11 45.3155 350.464 42.6203 349.011 40.7433C347.558 38.8662 344.839 38.5149 342.945 39.9553C341.051 41.3957 340.697 44.0909 342.15 45.9679C343.603 47.845 346.322 48.2013 348.216 46.7559Z"/><path fill="#ED7004" d="M355.239 35.4082C355.239 35.4082 355.3 35.5186 355.416 35.7244C355.447 35.7796 355.482 35.8398 355.517 35.9051C355.219 34.8511 354.236 34.1284 353.138 34.1434C353.715 34.1535 354.292 34.3693 354.748 34.7909C354.955 34.9716 355.117 35.1874 355.239 35.4082Z"/><path fill="#ED7004" d="M362.535 69.1401C362.485 69.1251 362.439 69.115 362.394 69.0949C362.348 69.0749 362.297 69.0648 362.252 69.0448C361.3 68.6834 360.551 67.8653 360.328 66.8063C360.272 66.5454 360.257 66.2794 360.267 66.0184C360.277 65.8628 360.297 65.7122 360.328 65.5617C360.328 65.5617 360.353 65.4362 360.399 65.2053C360.419 65.0899 360.444 64.9443 360.475 64.7737C360.505 64.6031 360.535 64.4073 360.571 64.1915C360.642 63.7549 360.718 63.2279 360.799 62.6206C360.88 62.0133 360.966 61.3307 361.042 60.5829C361.067 60.342 361.092 60.0961 361.118 59.8452C360.206 58.8865 359.209 57.7924 358.176 56.613C358.024 56.4373 357.867 56.2567 357.71 56.076C357.634 55.9856 357.553 55.8953 357.477 55.805L357.361 55.6694L357.3 55.5992L357.269 55.564L357.254 55.549L357.249 55.539C357.249 55.539 357.214 55.4938 357.229 55.5139C357.219 55.5038 357.209 55.4888 357.193 55.4737L357.123 55.3934L356.996 55.2428C356.986 55.2278 356.971 55.2177 356.961 55.2027C356.905 55.1374 356.854 55.0722 356.798 55.007C356.657 54.8313 356.515 54.6506 356.378 54.4699C356.242 54.2893 356.11 54.1036 355.978 53.9179C355.852 53.7322 355.725 53.5465 355.614 53.3658C355.502 53.1801 355.391 52.9994 355.305 52.8237C355.285 52.7786 355.259 52.7384 355.239 52.6932L355.209 52.628L355.183 52.5678L355.143 52.4774L355.138 52.4674V52.4624L355.133 52.4523L355.117 52.4072L355.077 52.2968C355.026 52.1612 354.976 51.9906 354.935 51.8049C354.895 51.6192 354.859 51.4134 354.834 51.2077C354.809 50.9969 354.788 50.7811 354.778 50.5652C354.768 50.3494 354.758 50.1286 354.758 49.9078C354.758 49.7974 354.758 49.692 354.763 49.5866L354.768 49.5113V49.4962V49.4912V49.4109V49.3657V49.1851C354.773 48.9441 354.773 48.6982 354.778 48.4623C354.783 48.2214 354.788 47.9855 354.793 47.7446C354.798 47.5087 354.803 47.2729 354.809 47.037C354.859 45.2352 354.94 43.5438 355.047 42.0884C355.006 42.0432 354.966 41.998 354.925 41.9528C354.424 41.3907 353.953 40.8888 353.538 40.4422C353.325 40.2213 353.133 40.0105 352.945 39.8198C352.763 39.6291 352.591 39.4534 352.434 39.2979C352.358 39.2176 352.282 39.1473 352.216 39.077C352.145 39.0068 352.079 38.9415 352.019 38.8813C351.897 38.7608 351.791 38.6605 351.705 38.5751C351.533 38.4095 351.441 38.3242 351.441 38.3242C351.178 38.0833 350.981 37.7972 350.854 37.4911C350.864 37.5613 350.874 37.6416 350.884 37.7269C350.895 37.8123 350.905 37.9026 350.92 37.998C350.93 38.0933 350.94 38.1987 350.955 38.3091C350.981 38.5249 351.006 38.7709 351.031 39.0319C351.062 39.2928 351.082 39.5789 351.112 39.88C351.168 40.4873 351.219 41.1699 351.269 41.9177C351.355 43.2226 351.421 44.7182 351.462 46.3193C351.462 46.3193 351.457 46.3193 351.457 46.3142C351.457 46.3142 351.497 48.2566 350.135 49.2955C348.96 50.1888 347.37 49.9128 346.955 49.8224C345.375 49.3657 343.912 48.909 342.646 48.4824C341.932 48.2415 341.274 48.0156 340.697 47.8099C340.408 47.7045 340.135 47.6091 339.887 47.5138C339.638 47.4184 339.411 47.3331 339.203 47.2528C339.102 47.2126 339 47.1775 338.909 47.1373C338.818 47.1022 338.732 47.0671 338.651 47.037C338.489 46.9717 338.357 46.9165 338.246 46.8713C338.028 46.781 337.912 46.7308 337.912 46.7308C337.679 46.6304 337.416 46.5552 337.147 46.5301C335.805 46.4046 334.621 47.3833 334.494 48.7083C334.367 50.0383 335.355 51.2127 336.692 51.3382C336.692 51.3382 336.818 51.3482 337.056 51.3783C337.173 51.3934 337.319 51.4084 337.492 51.4335C337.578 51.4435 337.669 51.4586 337.765 51.4686C337.861 51.4837 337.967 51.4988 338.074 51.5138C338.292 51.5439 338.535 51.5791 338.798 51.6192C339.061 51.6594 339.345 51.7045 339.649 51.7547C340.256 51.8551 340.94 51.9755 341.679 52.1161C343.163 52.3971 344.884 52.7585 346.717 53.1901C346.945 53.2453 347.178 53.3005 347.411 53.3557C347.644 53.4109 347.877 53.4712 348.115 53.5264C348.348 53.5866 348.586 53.6418 348.824 53.702L349.001 53.7472L349.046 53.7572L349.122 53.7773H349.127L349.143 53.7823L349.213 53.7974C349.315 53.8225 349.421 53.8476 349.527 53.8777C349.74 53.9329 349.953 53.9982 350.165 54.0634C350.373 54.1337 350.581 54.2039 350.778 54.2842C350.976 54.3645 351.163 54.4448 351.335 54.5352C351.507 54.6205 351.659 54.7159 351.781 54.8012L351.882 54.8664L351.922 54.8915L351.933 54.8965L351.938 54.9016L351.948 54.9066L352.029 54.9718L352.079 55.012L352.135 55.0571C352.17 55.0873 352.206 55.1174 352.241 55.1525C352.388 55.283 352.54 55.4336 352.687 55.5891C352.839 55.7447 352.986 55.9104 353.133 56.081C353.279 56.2516 353.426 56.4273 353.568 56.603C353.71 56.7836 353.847 56.9643 353.983 57.145C354.034 57.2153 354.084 57.2805 354.13 57.3508C354.14 57.3658 354.15 57.3809 354.16 57.3959L354.272 57.5565L354.333 57.6419C354.343 57.6569 354.353 57.672 354.363 57.682C354.348 57.6619 354.383 57.7121 354.383 57.7121L354.388 57.7222L354.403 57.7422L354.429 57.7774L354.479 57.8527L354.581 58.0032C354.647 58.1036 354.717 58.199 354.783 58.2993C354.92 58.4951 355.052 58.6908 355.183 58.8865C356.242 60.4374 357.193 61.9079 357.983 63.1927C358.378 63.8352 358.733 64.4274 359.042 64.9594C359.35 65.4914 359.614 65.9531 359.826 66.3446C359.933 66.5403 360.029 66.711 360.11 66.8615C360.191 67.0121 360.262 67.1426 360.313 67.248C360.424 67.4588 360.48 67.5742 360.48 67.5742C360.657 67.9356 360.915 68.2819 361.244 68.5579C361.867 69.0899 362.642 69.3308 363.406 69.2957C363.113 69.2806 362.824 69.2254 362.546 69.1351C362.54 69.1401 362.535 69.1401 362.535 69.1401Z"/><path fill="#FAB600" d="M351.441 38.3292C351.441 38.3292 351.532 38.4145 351.705 38.5802C351.791 38.6605 351.897 38.7658 352.019 38.8863C352.079 38.9465 352.145 39.0118 352.216 39.082C352.287 39.1523 352.358 39.2276 352.434 39.3029C352.591 39.4585 352.758 39.6341 352.945 39.8248C353.133 40.0155 353.325 40.2263 353.538 40.4472C353.958 40.8939 354.424 41.4008 354.925 41.9579C354.965 42.003 355.006 42.0482 355.046 42.0934C355.052 42.0432 355.052 41.993 355.057 41.9378C355.112 41.19 355.168 40.5074 355.229 39.9001C355.259 39.599 355.284 39.3129 355.315 39.0519C355.345 38.7909 355.371 38.55 355.396 38.3292C355.411 38.2188 355.421 38.1184 355.431 38.018C355.447 37.9227 355.457 37.8323 355.467 37.747C355.487 37.5764 355.507 37.4358 355.528 37.3154C355.563 37.0845 355.583 36.9591 355.583 36.9591C355.624 36.7081 355.629 36.4371 355.588 36.1761C355.573 36.0807 355.553 35.9904 355.528 35.9051C355.487 35.8398 355.457 35.7796 355.426 35.7244C355.31 35.5186 355.249 35.4082 355.249 35.4082C355.128 35.1874 354.96 34.9716 354.763 34.7859C354.307 34.3643 353.73 34.1535 353.153 34.1384C353.036 34.1384 352.92 34.1485 352.798 34.1686C351.472 34.3793 350.565 35.619 350.778 36.934C350.778 36.934 350.798 37.0594 350.829 37.2903C350.839 37.3505 350.844 37.4108 350.854 37.486C350.981 37.8022 351.178 38.0833 351.441 38.3292Z"/><path fill="#ED7004" d="M361.204 68.2467C360.09 66.9669 360.237 65.0296 361.528 63.9255C361.528 63.9255 361.624 63.8402 361.801 63.6846C361.892 63.6043 361.999 63.5089 362.125 63.3885C362.252 63.273 362.399 63.1375 362.561 62.987C362.809 62.7561 363.087 62.4851 363.401 62.1789C363.305 62.0836 363.199 61.9832 363.098 61.8778C362.662 61.4462 362.171 60.9543 361.649 60.4073C361.477 60.2266 361.295 60.0409 361.113 59.8452C361.087 60.0961 361.062 60.342 361.037 60.5829C360.956 61.3307 360.87 62.0133 360.794 62.6206C360.713 63.2279 360.637 63.7549 360.566 64.1915C360.53 64.4073 360.5 64.603 360.47 64.7737C360.439 64.9443 360.414 65.0849 360.394 65.2053C360.353 65.4412 360.323 65.5617 360.323 65.5617C360.292 65.7072 360.272 65.8628 360.262 66.0184C360.247 66.2793 360.267 66.5453 360.323 66.8063C360.546 67.8653 361.295 68.6884 362.247 69.0447C362.292 69.0648 362.338 69.0799 362.389 69.0949C362.439 69.11 362.485 69.125 362.53 69.1401C362.535 69.1401 362.535 69.1401 362.541 69.1401C362.039 68.9695 361.578 68.6734 361.204 68.2467Z"/><path fill="#36A9E1" d="M378.592 46.7559C380.485 48.1963 383.199 47.845 384.658 45.9679C386.111 44.0909 385.756 41.4007 383.863 39.9553C381.969 38.5149 379.255 38.8662 377.797 40.7433C376.338 42.6203 376.698 45.3155 378.592 46.7559Z"/><path fill="#36A9E1" d="M392.319 48.7183C392.192 47.3883 391.007 46.4146 389.665 46.5401C389.397 46.5652 389.134 46.6355 388.901 46.7409C388.901 46.7409 388.784 46.7911 388.567 46.8814C388.455 46.9266 388.324 46.9818 388.162 47.047C388.081 47.0771 387.995 47.1123 387.903 47.1474C387.812 47.1825 387.716 47.2227 387.61 47.2628C387.402 47.3431 387.174 47.4285 386.926 47.5238C386.678 47.6192 386.405 47.7145 386.116 47.8199C385.539 48.0257 384.886 48.2566 384.167 48.4925C382.896 48.914 381.432 49.3758 379.858 49.8325C379.442 49.9279 377.852 50.2039 376.678 49.3055C375.311 48.2666 375.356 46.3243 375.356 46.3243C375.356 46.3243 375.351 46.3243 375.351 46.3293C375.392 44.7283 375.457 43.2327 375.543 41.9278C375.594 41.1799 375.645 40.4974 375.7 39.8901C375.731 39.589 375.751 39.3029 375.781 39.0419C375.807 38.7809 375.832 38.54 375.857 38.3192C375.868 38.2088 375.883 38.1084 375.893 38.008C375.903 37.9126 375.918 37.8223 375.928 37.737C375.949 37.5663 375.969 37.4258 375.984 37.3054C376.014 37.0695 376.035 36.949 376.035 36.949C376.247 35.6341 375.346 34.3944 374.014 34.1836C373.923 34.1686 373.832 34.1585 373.736 34.1535C374.085 34.1736 374.435 34.2639 374.764 34.4396C375.949 35.072 376.389 36.5375 375.746 37.7119C375.619 37.9478 375.447 38.1586 375.26 38.3342C375.26 38.3342 375.169 38.4196 374.997 38.5852C374.911 38.6655 374.804 38.7709 374.688 38.8913C374.627 38.9516 374.561 39.0168 374.49 39.0871C374.419 39.1573 374.349 39.2326 374.273 39.3079C374.116 39.4635 373.948 39.6391 373.766 39.8299C373.579 40.0206 373.386 40.2314 373.174 40.4522C372.754 40.8989 372.288 41.4058 371.786 41.9629C371.776 41.9729 371.766 41.983 371.756 41.998C371.862 43.4786 371.948 45.2051 371.999 47.052C372.004 47.2879 372.009 47.5188 372.014 47.7597C372.019 47.9956 372.024 48.2365 372.029 48.4774C372.035 48.7183 372.035 48.9592 372.04 49.2001V49.3808V49.426V49.5063V49.5113V49.5264L372.045 49.6016C372.05 49.707 372.05 49.8124 372.05 49.9228C372.05 50.1437 372.045 50.3645 372.029 50.5803C372.019 50.7961 371.999 51.0119 371.974 51.2227C371.948 51.4335 371.918 51.6343 371.872 51.82C371.832 52.0057 371.781 52.1763 371.731 52.3118L371.69 52.4222L371.675 52.4674L371.67 52.4775V52.4825L371.665 52.4925L371.624 52.5829L371.599 52.6431L371.569 52.7083C371.548 52.7485 371.528 52.7936 371.503 52.8388C371.412 53.0145 371.305 53.1952 371.194 53.3809C371.083 53.5666 370.956 53.7523 370.829 53.9329C370.703 54.1186 370.566 54.3043 370.429 54.485C370.293 54.6657 370.151 54.8464 370.009 55.022C369.953 55.0873 369.903 55.1525 369.847 55.2178C369.837 55.2328 369.822 55.2429 369.812 55.2579L369.685 55.4085L369.614 55.4888C369.604 55.5038 369.589 55.5139 369.579 55.5289C369.594 55.5089 369.553 55.5591 369.558 55.554L369.553 55.5641L369.538 55.5791L369.508 55.6143L369.447 55.6845L369.331 55.82C369.25 55.9104 369.174 56.0007 369.098 56.0911C368.941 56.2717 368.784 56.4474 368.632 56.6281C367.563 57.8426 366.536 58.9719 365.599 59.9556C365.619 60.1764 365.644 60.3872 365.665 60.598C365.746 61.3458 365.832 62.0284 365.908 62.6357C365.989 63.243 366.065 63.77 366.136 64.2066C366.171 64.4224 366.201 64.6181 366.232 64.7888C366.262 64.9594 366.287 65.1 366.308 65.2204C366.348 65.4563 366.379 65.5767 366.379 65.5767C366.652 66.8766 366.044 68.1565 364.966 68.8139C364.495 69.1251 363.953 69.2907 363.406 69.3208C364.166 69.356 364.946 69.1151 365.568 68.5831C365.893 68.302 366.156 67.9607 366.333 67.5994C366.333 67.5994 366.389 67.4839 366.5 67.2731C366.556 67.1677 366.622 67.0372 366.703 66.8867C366.784 66.7361 366.88 66.5605 366.986 66.3697C367.199 65.9833 367.462 65.5165 367.771 64.9845C368.08 64.4575 368.434 63.8603 368.829 63.2179C369.619 61.933 370.571 60.4625 371.629 58.9117C371.761 58.7159 371.898 58.5252 372.029 58.3245C372.095 58.2291 372.166 58.1287 372.232 58.0283L372.333 57.8778L372.384 57.8025L372.409 57.7674L372.424 57.7473L372.429 57.7373C372.429 57.7373 372.465 57.6871 372.45 57.7071C372.46 57.6921 372.47 57.682 372.48 57.667L372.541 57.5817L372.652 57.4211C372.662 57.406 372.672 57.3909 372.683 57.3759C372.733 57.3056 372.784 57.2404 372.829 57.1701C372.966 56.9894 373.103 56.8088 373.245 56.6281C373.386 56.4474 373.533 56.2768 373.68 56.1061C373.827 55.9355 373.974 55.7698 374.126 55.6143C374.278 55.4587 374.424 55.3081 374.571 55.1776C374.607 55.1425 374.642 55.1124 374.678 55.0823L374.733 55.0371L374.784 54.9969L374.865 54.9317L374.875 54.9267L374.88 54.9217L374.89 54.9166L374.931 54.8915L375.032 54.8263C375.154 54.741 375.305 54.6506 375.478 54.5603C375.65 54.47 375.837 54.3897 376.035 54.3093C376.232 54.229 376.435 54.1588 376.647 54.0885C376.855 54.0183 377.068 53.958 377.285 53.9028C377.392 53.8727 377.498 53.8476 377.599 53.8225L377.67 53.8075L377.685 53.8024H377.69L377.766 53.7824L377.812 53.7723L377.989 53.7272C378.227 53.6669 378.465 53.6067 378.698 53.5515C378.931 53.4963 379.169 53.4361 379.402 53.3809C379.635 53.3256 379.868 53.2704 380.096 53.2152C381.928 52.7836 383.65 52.4172 385.134 52.1412C385.878 52.0007 386.556 51.8802 387.164 51.7798C387.468 51.7296 387.751 51.6845 388.015 51.6443C388.278 51.6042 388.521 51.569 388.739 51.5389C388.85 51.5239 388.952 51.5088 389.048 51.4938C389.144 51.4787 389.235 51.4687 389.321 51.4586C389.493 51.4335 389.635 51.4185 389.757 51.4034C389.995 51.3733 390.121 51.3633 390.121 51.3633C391.458 51.2278 392.44 50.0483 392.319 48.7183Z"/><path fill="#36A9E1" d="M363.705 61.8728C363.599 61.9782 363.497 62.0786 363.401 62.1739C363.715 62.4801 363.999 62.7511 364.242 62.982C364.404 63.1325 364.546 63.268 364.677 63.3835C364.804 63.4989 364.915 63.5993 365.001 63.6796C365.179 63.8402 365.275 63.9205 365.275 63.9205C366.566 65.0246 366.713 66.9569 365.599 68.2417C365.411 68.4575 365.194 68.6433 364.966 68.7988C366.049 68.1414 366.652 66.8666 366.379 65.5617C366.379 65.5617 366.353 65.4362 366.308 65.2053C366.287 65.0899 366.262 64.9443 366.232 64.7737C366.201 64.6031 366.171 64.4073 366.136 64.1915C366.065 63.7549 365.989 63.2279 365.908 62.6206C365.827 62.0133 365.741 61.3307 365.665 60.5829C365.644 60.3721 365.619 60.1563 365.599 59.9405C365.447 60.1011 365.3 60.2567 365.153 60.4073C364.632 60.9493 364.146 61.4412 363.705 61.8728Z"/><path fill="#2FAC66" d="M371.219 36.1761C371.179 36.4421 371.179 36.7131 371.224 36.959C371.224 36.959 371.245 37.0845 371.28 37.3154C371.295 37.4308 371.315 37.5764 371.341 37.747C371.351 37.8323 371.366 37.9227 371.376 38.018C371.386 38.1134 371.402 38.2188 371.412 38.3292C371.437 38.545 371.467 38.7859 371.493 39.0519C371.523 39.3129 371.548 39.599 371.579 39.9001C371.634 40.5074 371.695 41.19 371.751 41.9378C371.751 41.9528 371.751 41.9729 371.756 41.988C371.766 41.9779 371.776 41.9679 371.786 41.9528C372.288 41.3907 372.759 40.8888 373.174 40.4421C373.386 40.2213 373.579 40.0105 373.766 39.8198C373.948 39.6291 374.121 39.4534 374.272 39.2978C374.348 39.2175 374.424 39.1473 374.49 39.077C374.561 39.0067 374.627 38.9415 374.688 38.8813C374.809 38.7608 374.916 38.6604 374.997 38.5751C375.169 38.4095 375.26 38.3242 375.26 38.3242C375.447 38.1485 375.614 37.9377 375.746 37.7018C376.384 36.5274 375.943 35.0619 374.764 34.4295C374.435 34.2539 374.085 34.1585 373.736 34.1435C373.726 34.1435 373.716 34.1435 373.705 34.1435C373.705 34.1435 373.705 34.1435 373.7 34.1435C372.495 34.1033 371.417 34.9615 371.219 36.1761Z"/><path fill="#36A9E1" d="M363.979 69.1853C363.771 69.2305 363.563 69.2505 363.356 69.2505C363.305 69.2505 363.254 69.2505 363.204 69.2455C362.976 69.2355 362.753 69.2003 362.541 69.1401C362.819 69.2355 363.108 69.2907 363.401 69.3007C363.948 69.2756 364.49 69.105 364.961 68.7938C364.667 68.9795 364.338 69.11 363.979 69.1853Z"/><path fill="#008D36" d="M365.705 68.3923C366.844 67.0774 366.698 65.0999 365.376 63.9656C365.376 63.9656 365.275 63.8803 365.092 63.7197C365.001 63.6394 364.89 63.539 364.758 63.4186C364.627 63.2981 364.48 63.1626 364.313 63.007C364.059 62.7712 363.771 62.4901 363.452 62.1789C363.133 62.4951 362.839 62.7712 362.591 63.007C362.424 63.1626 362.277 63.3032 362.145 63.4186C362.014 63.539 361.902 63.6394 361.811 63.7197C361.629 63.8853 361.528 63.9656 361.528 63.9656C360.201 65.0949 360.054 67.0774 361.199 68.3923C361.578 68.8289 362.054 69.1351 362.566 69.3108C362.783 69.371 363.011 69.4061 363.244 69.4162C363.295 69.4162 363.351 69.4212 363.401 69.4212C363.614 69.4212 363.827 69.4011 364.039 69.3559C364.409 69.2807 364.743 69.1451 365.047 68.9594C365.29 68.8089 365.513 68.6182 365.705 68.3923Z"/></g><defs><clipPath id="clip0_48_3"><rect width="77" height="101" fill="#fff" transform="translate(325)"/></clipPath></defs></svg>