<svg xmlns="http://www.w3.org/2000/svg" width="237" height="48" fill="currentColor" className="text-black dark:text-white" viewBox="0 0 237 48"><g clipPath="url(#clip0_108_2)"><path d="M144.88 34.2479C144.88 34.9231 145.827 35.4743 146.984 35.4743H155.172C156.329 35.4743 157.276 34.9231 157.276 34.2479C157.276 33.5726 156.329 33.0214 155.172 33.0214H146.984C145.827 33.0214 144.88 33.5726 144.88 34.2479Z"/><path d="M145.303 37.235C145.303 37.9103 146.25 38.4615 147.407 38.4615H154.629C155.786 38.4615 156.733 37.9081 156.733 37.235C156.733 36.562 155.786 36.0086 154.629 36.0086H147.407C146.25 36.0064 145.303 36.5598 145.303 37.235Z"/><path d="M145.953 40.1731C145.953 40.8483 146.529 41.3996 147.234 41.3996C147.939 41.3996 148.516 41.7607 148.516 42.2009C148.516 42.641 149.463 43.0021 150.62 43.0021H151.5C152.657 43.0021 153.604 42.641 153.604 42.2009C153.604 41.7607 154.172 41.3996 154.866 41.3996C155.561 41.3996 156.127 40.8483 156.127 40.1731C156.127 39.4979 155.18 38.9466 154.023 38.9466H148.057C146.9 38.9466 145.953 39.4979 145.953 40.1731Z"/><path d="M165.744 9.90598C164.94 7.97436 163.787 6.23932 162.32 4.75C160.853 3.26068 159.145 2.09188 157.242 1.2735C155.277 0.429487 153.185 0 151.033 0H150.972C148.815 0 146.725 0.429487 144.756 1.27564C142.853 2.09188 141.145 3.26282 139.678 4.75214C138.211 6.24145 137.06 7.97436 136.256 9.90598C135.423 11.9081 135 14.032 135 16.2201C135 20.5791 138.072 25.3483 138.203 25.5491C138.794 26.4594 142.967 32.2991 145.74 32.2564H156.26C159.321 32.0427 163.206 26.4573 163.797 25.5491C163.928 25.3483 167 20.5769 167 16.2201C167 14.032 166.577 11.9081 165.744 9.90598ZM162.04 24.3718C161.373 25.3974 157.994 30.1218 156.258 30.1218H152.032H149.928H145.74C144.042 29.9936 140.627 25.3974 139.96 24.3739C139.93 24.3291 137.104 19.9316 137.104 16.2222C137.104 8.46154 143.318 2.1453 150.959 2.13889C150.986 2.13889 151.014 2.13889 151.041 2.13889C158.682 2.14744 164.896 8.46154 164.896 16.2222C164.896 19.9316 162.07 24.3291 162.04 24.3718Z"/><path fill="#FFD500" d="M151.247 17.7072C152.227 17.5458 152.892 16.6085 152.733 15.6137C152.574 14.6188 151.651 13.9433 150.671 14.1047C149.692 14.2662 149.026 15.2035 149.185 16.1983C149.344 17.1931 150.267 17.8687 151.247 17.7072Z"/><path fill="#FFD500" d="M145.711 15.7265C145.623 15.1667 145.997 14.6389 146.551 14.5492C146.599 14.5406 146.65 14.5363 146.698 14.5363C146.42 14.5299 146.14 14.641 145.936 14.8654C145.656 15.171 145.595 15.6026 145.745 15.9637C145.741 15.9338 145.736 15.906 145.734 15.8804C145.719 15.7799 145.711 15.7265 145.711 15.7265Z"/><path fill="#FFD500" d="M147.708 15.735C147.708 15.735 147.7 15.7885 147.685 15.8867C147.678 15.9359 147.67 15.9979 147.66 16.0705C147.655 16.1068 147.649 16.1453 147.645 16.1859C147.641 16.2265 147.634 16.2714 147.63 16.3184C147.62 16.4102 147.607 16.5128 147.596 16.6261C147.584 16.7372 147.573 16.859 147.561 16.9872C147.537 17.2457 147.512 17.5363 147.489 17.8547C147.487 17.8761 147.487 17.8974 147.485 17.9209C147.889 18.3846 148.346 18.9295 148.819 19.5214C148.88 19.5983 148.943 19.6773 149.004 19.7543C149.065 19.8333 149.128 19.9124 149.191 19.9936C149.255 20.0748 149.318 20.1538 149.381 20.235L149.429 20.297L149.442 20.312L149.463 20.3376L149.465 20.3397L149.469 20.344L149.488 20.3675C149.516 20.4017 149.545 20.438 149.572 20.4744C149.629 20.547 149.684 20.6239 149.734 20.7008C149.787 20.7778 149.835 20.8547 149.88 20.9316C149.924 21.0085 149.966 21.0855 149.999 21.1602C150.033 21.235 150.061 21.3055 150.077 21.3632L150.092 21.4124L150.098 21.4316L150.101 21.4359V21.438V21.4423L150.111 21.4829L150.117 21.5107L150.124 21.5406C150.128 21.5598 150.132 21.5791 150.136 21.6004C150.151 21.6816 150.164 21.7714 150.172 21.8632C150.183 21.9551 150.189 22.0491 150.193 22.1453C150.197 22.2414 150.202 22.3376 150.202 22.4338C150.202 22.5299 150.202 22.6282 150.199 22.7244C150.197 22.7607 150.197 22.797 150.195 22.8312C150.195 22.8376 150.195 22.8461 150.193 22.8526C150.191 22.8803 150.191 22.9081 150.189 22.9359C150.189 22.9508 150.187 22.9658 150.187 22.9808C150.187 22.9893 150.187 22.9957 150.185 23.0021C150.185 22.9914 150.185 23.0171 150.185 23.0171V23.0214V23.0299V23.0491L150.183 23.0876C150.18 23.1132 150.18 23.1389 150.178 23.1645C150.176 23.2158 150.172 23.2649 150.17 23.3162C150.164 23.4167 150.159 23.5171 150.153 23.6175C150.113 24.2842 150.063 24.9145 150.008 25.4765C150.084 25.5577 150.157 25.6367 150.231 25.7158C150.448 25.9466 150.652 26.156 150.833 26.3419C150.877 26.3867 150.919 26.4295 150.959 26.4701C150.999 26.4295 151.043 26.3867 151.085 26.3419C151.266 26.1581 151.47 25.9487 151.687 25.7158C151.748 25.6517 151.809 25.5855 151.872 25.5171C151.816 24.9466 151.765 24.3013 151.723 23.6175C151.717 23.5171 151.712 23.4188 151.706 23.3162C151.704 23.2649 151.7 23.2158 151.698 23.1645C151.696 23.1389 151.696 23.1132 151.693 23.0876L151.691 23.0491V23.0299V23.0214V23.0171C151.691 23.0171 151.691 22.9914 151.691 23.0021C151.691 22.9957 151.691 22.9893 151.689 22.9808C151.689 22.9658 151.689 22.9508 151.687 22.9359C151.685 22.9081 151.685 22.8803 151.683 22.8526C151.683 22.844 151.683 22.8376 151.681 22.8291C151.679 22.7927 151.679 22.7585 151.677 22.7222C151.675 22.6261 151.675 22.5299 151.675 22.4316C151.675 22.3355 151.679 22.2393 151.683 22.1432C151.687 22.047 151.696 21.953 151.704 21.8632C151.714 21.7714 151.725 21.6838 151.74 21.6004C151.744 21.5791 151.748 21.5598 151.752 21.5406L151.759 21.5107L151.765 21.4829L151.776 21.4423V21.438V21.4359L151.778 21.4316L151.784 21.4124L151.799 21.3632C151.816 21.3034 151.843 21.2329 151.877 21.1602C151.91 21.0855 151.952 21.0107 151.996 20.9316C152.041 20.8547 152.091 20.7778 152.142 20.7008C152.192 20.6239 152.247 20.547 152.304 20.4744C152.331 20.438 152.361 20.4017 152.388 20.3675L152.407 20.344L152.411 20.3397L152.413 20.3376L152.434 20.312L152.447 20.297L152.493 20.235C152.556 20.1538 152.619 20.0726 152.682 19.9936C152.746 19.9145 152.809 19.8333 152.87 19.7543C152.933 19.6752 152.994 19.5983 153.055 19.5214C153.543 18.9102 154.014 18.3504 154.429 17.8761C154.429 17.8697 154.429 17.8611 154.427 17.8547C154.404 17.5363 154.381 17.2457 154.355 16.9872C154.343 16.859 154.332 16.7372 154.32 16.6261C154.307 16.5149 154.296 16.4124 154.286 16.3184C154.28 16.2714 154.275 16.2286 154.271 16.1859C154.265 16.1453 154.261 16.1068 154.256 16.0705C154.248 15.9979 154.24 15.938 154.231 15.8867C154.217 15.7885 154.208 15.735 154.208 15.735C154.191 15.6282 154.189 15.5128 154.206 15.4017C154.288 14.8846 154.736 14.5214 155.237 14.5363C154.865 14.5214 154.496 14.7179 154.307 15.0748C154.307 15.0748 154.282 15.1218 154.233 15.2094C154.208 15.2521 154.179 15.3077 154.143 15.3697C154.124 15.4017 154.105 15.4338 154.084 15.4701C154.063 15.5064 154.04 15.5427 154.017 15.5833C153.97 15.6645 153.916 15.7521 153.857 15.8461C153.8 15.9423 153.735 16.0449 153.665 16.1538C153.528 16.3718 153.371 16.6175 153.196 16.8825C152.891 17.344 152.531 17.8675 152.135 18.4188V18.4167C152.135 18.4167 151.653 19.0833 150.938 19.0833C150.321 19.0833 149.869 18.5812 149.755 18.4423C149.353 17.8825 148.987 17.3504 148.676 16.8825C148.501 16.6175 148.343 16.3718 148.207 16.1538C148.139 16.0449 148.074 15.9423 148.015 15.8461C147.956 15.75 147.904 15.6624 147.855 15.5833C147.832 15.5427 147.809 15.5064 147.788 15.4701C147.767 15.4338 147.748 15.3996 147.729 15.3697C147.712 15.3397 147.695 15.312 147.681 15.2863C147.691 15.3248 147.7 15.3632 147.706 15.4017C147.727 15.5128 147.727 15.6282 147.708 15.735Z"/><path fill="#ED7004" d="M144.648 19.906C145.435 19.2927 145.582 18.1453 144.978 17.3462C144.374 16.547 143.244 16.3974 142.457 17.0107C141.67 17.6239 141.523 18.7714 142.127 19.5705C142.731 20.3697 143.861 20.5214 144.648 19.906Z"/><path fill="#ED7004" d="M147.567 15.0748C147.567 15.0748 147.592 15.1218 147.64 15.2094C147.653 15.2329 147.668 15.2585 147.682 15.2863C147.558 14.8376 147.15 14.5299 146.693 14.5363C146.933 14.5406 147.173 14.6325 147.363 14.812C147.449 14.8889 147.516 14.9808 147.567 15.0748Z"/><path fill="#ED7004" d="M150.599 29.4359C150.578 29.4295 150.559 29.4252 150.54 29.4167C150.521 29.4081 150.5 29.4038 150.481 29.3953C150.086 29.2415 149.774 28.8932 149.682 28.4423C149.658 28.3312 149.652 28.218 149.656 28.1068C149.661 28.0406 149.669 27.9765 149.682 27.9124C149.682 27.9124 149.692 27.859 149.711 27.7607C149.719 27.7115 149.73 27.6496 149.743 27.5769C149.755 27.5043 149.768 27.4209 149.783 27.3291C149.812 27.1432 149.844 26.9188 149.877 26.6603C149.911 26.4017 149.947 26.1111 149.978 25.7927C149.989 25.6902 149.999 25.5855 150.01 25.4786C149.631 25.0705 149.217 24.6047 148.787 24.1026C148.724 24.0278 148.659 23.9509 148.594 23.8739C148.562 23.8355 148.528 23.797 148.497 23.7586L148.448 23.7009L148.423 23.6709L148.411 23.656L148.404 23.6496L148.402 23.6453C148.402 23.6453 148.387 23.6261 148.394 23.6346C148.39 23.6303 148.385 23.6239 148.379 23.6175L148.35 23.5833L148.297 23.5192C148.293 23.5128 148.286 23.5086 148.282 23.5021C148.259 23.4744 148.238 23.4466 148.215 23.4188C148.156 23.344 148.097 23.2671 148.04 23.1902C147.983 23.1133 147.929 23.0342 147.874 22.9551C147.821 22.8761 147.769 22.797 147.722 22.7201C147.676 22.641 147.63 22.5641 147.594 22.4893C147.586 22.4701 147.575 22.453 147.567 22.4338L147.554 22.406L147.544 22.3803L147.527 22.3419L147.525 22.3376V22.3355L147.523 22.3312L147.516 22.312L147.499 22.265C147.478 22.2073 147.457 22.1346 147.44 22.0556C147.424 21.9765 147.409 21.8889 147.398 21.8013C147.388 21.7115 147.379 21.6197 147.375 21.5278C147.371 21.4359 147.367 21.3419 147.367 21.2479C147.367 21.2009 147.367 21.156 147.369 21.1111L147.371 21.0791V21.0727V21.0705V21.0363V21.0171V20.9402C147.373 20.8376 147.373 20.7329 147.375 20.6325C147.377 20.5299 147.379 20.4295 147.382 20.3269C147.384 20.2265 147.386 20.1261 147.388 20.0256C147.409 19.2586 147.443 18.5385 147.487 17.9188C147.47 17.8996 147.453 17.8804 147.436 17.8611C147.228 17.6218 147.032 17.4081 146.86 17.218C146.771 17.1239 146.691 17.0342 146.614 16.953C146.538 16.8718 146.466 16.797 146.401 16.7308C146.369 16.6966 146.338 16.6667 146.31 16.6368C146.281 16.6068 146.254 16.5791 146.228 16.5534C146.178 16.5021 146.134 16.4594 146.098 16.4231C146.026 16.3526 145.989 16.3162 145.989 16.3162C145.879 16.2137 145.797 16.0919 145.744 15.9615C145.749 15.9915 145.753 16.0257 145.757 16.062C145.761 16.0983 145.765 16.1368 145.772 16.1774C145.776 16.218 145.78 16.2628 145.787 16.3098C145.797 16.4017 145.808 16.5064 145.818 16.6175C145.831 16.7286 145.839 16.8504 145.852 16.9786C145.875 17.2372 145.896 17.5278 145.917 17.8462C145.953 18.4017 145.98 19.0385 145.997 19.7201C145.997 19.7201 145.995 19.7201 145.995 19.718C145.995 19.718 146.012 20.5449 145.446 20.9872C144.957 21.3675 144.297 21.25 144.124 21.2115C143.468 21.0171 142.859 20.8227 142.333 20.641C142.037 20.5385 141.763 20.4423 141.523 20.3547C141.403 20.3098 141.29 20.2692 141.187 20.2286C141.083 20.188 140.989 20.1517 140.902 20.1175C140.86 20.1004 140.818 20.0855 140.78 20.0684C140.743 20.0534 140.707 20.0385 140.673 20.0256C140.606 19.9979 140.551 19.9744 140.505 19.9551C140.414 19.9167 140.366 19.8953 140.366 19.8953C140.269 19.8526 140.16 19.8205 140.048 19.8098C139.49 19.7564 138.998 20.1731 138.945 20.7372C138.893 21.3034 139.303 21.8034 139.859 21.8568C139.859 21.8568 139.911 21.8611 140.01 21.8739C140.059 21.8803 140.12 21.8868 140.191 21.8974C140.227 21.9017 140.265 21.9081 140.305 21.9124C140.345 21.9188 140.389 21.9252 140.433 21.9316C140.524 21.9445 140.625 21.9594 140.734 21.9765C140.844 21.9936 140.961 22.0128 141.088 22.0342C141.34 22.0769 141.624 22.1282 141.931 22.188C142.548 22.3077 143.263 22.4615 144.025 22.6453C144.12 22.6688 144.217 22.6923 144.314 22.7158C144.41 22.7393 144.507 22.765 144.606 22.7885C144.703 22.8141 144.802 22.8376 144.901 22.8633L144.974 22.8825L144.993 22.8868L145.025 22.8953H145.027L145.033 22.8974L145.063 22.9039C145.105 22.9145 145.149 22.9252 145.193 22.938C145.281 22.9615 145.37 22.9893 145.458 23.0171C145.545 23.047 145.631 23.0769 145.713 23.1111C145.795 23.1453 145.873 23.1795 145.944 23.218C146.016 23.2543 146.079 23.2949 146.13 23.3312L146.172 23.359L146.188 23.3697L146.193 23.3718L146.195 23.3739L146.199 23.3761L146.233 23.4039L146.254 23.4209L146.277 23.4402C146.292 23.453 146.306 23.4658 146.321 23.4808C146.382 23.5363 146.445 23.6004 146.506 23.6667C146.569 23.7329 146.63 23.8034 146.691 23.8761C146.752 23.9487 146.813 24.0235 146.872 24.0983C146.931 24.1752 146.988 24.2521 147.045 24.3291C147.066 24.359 147.087 24.3868 147.106 24.4167C147.11 24.4231 147.114 24.4295 147.119 24.4359L147.165 24.5043L147.19 24.5406C147.194 24.547 147.199 24.5534 147.203 24.5577C147.196 24.5492 147.211 24.5705 147.211 24.5705L147.213 24.5748L147.22 24.5833L147.23 24.5983L147.251 24.6303L147.293 24.6944C147.321 24.7372 147.35 24.7778 147.377 24.8205C147.434 24.9039 147.489 24.9872 147.544 25.0705C147.983 25.7308 148.379 26.3568 148.707 26.9038C148.871 27.1774 149.019 27.4295 149.147 27.656C149.275 27.8825 149.385 28.0791 149.473 28.2457C149.517 28.3291 149.557 28.4017 149.591 28.4658C149.625 28.5299 149.654 28.5855 149.675 28.6303C149.722 28.7201 149.745 28.7692 149.745 28.7692C149.818 28.9231 149.926 29.0705 150.062 29.188C150.321 29.4145 150.643 29.5171 150.961 29.5021C150.839 29.4957 150.719 29.4722 150.603 29.4338C150.601 29.4359 150.599 29.4359 150.599 29.4359Z"/><path fill="#FAB600" d="M145.989 16.3184C145.989 16.3184 146.027 16.3547 146.098 16.4252C146.134 16.4594 146.178 16.5043 146.229 16.5555C146.254 16.5812 146.281 16.609 146.311 16.6389C146.34 16.6688 146.37 16.7008 146.401 16.7329C146.466 16.7991 146.536 16.8739 146.614 16.9551C146.692 17.0363 146.772 17.1261 146.86 17.2201C147.035 17.4102 147.228 17.6261 147.436 17.8632C147.453 17.8825 147.47 17.9017 147.487 17.9209C147.489 17.8996 147.489 17.8782 147.491 17.8547C147.514 17.5363 147.537 17.2457 147.563 16.9872C147.575 16.859 147.586 16.7372 147.598 16.6261C147.611 16.5149 147.622 16.4124 147.632 16.3184C147.638 16.2714 147.643 16.2286 147.647 16.1859C147.653 16.1453 147.657 16.1068 147.662 16.0705C147.67 15.9979 147.678 15.938 147.687 15.8867C147.702 15.7885 147.71 15.735 147.71 15.735C147.727 15.6282 147.729 15.5128 147.712 15.4017C147.706 15.3611 147.697 15.3226 147.687 15.2863C147.67 15.2585 147.657 15.2329 147.645 15.2094C147.596 15.1218 147.571 15.0748 147.571 15.0748C147.521 14.9808 147.451 14.8889 147.369 14.8098C147.18 14.6303 146.94 14.5406 146.7 14.5342C146.652 14.5342 146.603 14.5385 146.553 14.547C146.001 14.6367 145.625 15.1645 145.713 15.7243C145.713 15.7243 145.721 15.7778 145.734 15.8761C145.738 15.9017 145.74 15.9273 145.745 15.9594C145.797 16.094 145.879 16.2137 145.989 16.3184Z"/><path fill="#ED7004" d="M150.046 29.0556C149.583 28.5107 149.644 27.6859 150.18 27.2158C150.18 27.2158 150.22 27.1795 150.294 27.1133C150.332 27.0791 150.376 27.0385 150.429 26.9872C150.481 26.938 150.542 26.8803 150.61 26.8162C150.713 26.718 150.829 26.6026 150.959 26.4722C150.919 26.4316 150.875 26.3889 150.833 26.344C150.652 26.1603 150.448 25.9509 150.231 25.718C150.159 25.641 150.084 25.562 150.008 25.4786C149.997 25.5855 149.987 25.6902 149.976 25.7927C149.943 26.1111 149.907 26.4017 149.875 26.6603C149.842 26.9188 149.81 27.1432 149.781 27.3291C149.766 27.4209 149.753 27.5043 149.741 27.5769C149.728 27.6496 149.718 27.7094 149.709 27.7607C149.692 27.8611 149.68 27.9124 149.68 27.9124C149.667 27.9744 149.659 28.0406 149.654 28.1068C149.648 28.2179 149.656 28.3312 149.68 28.4423C149.772 28.8932 150.084 29.2436 150.479 29.3953C150.498 29.4038 150.517 29.4103 150.538 29.4167C150.559 29.4231 150.578 29.4295 150.597 29.4359C150.599 29.4359 150.599 29.4359 150.601 29.4359C150.393 29.3632 150.201 29.2372 150.046 29.0556Z"/><path fill="#36A9E1" d="M157.272 19.906C158.059 20.5192 159.187 20.3697 159.793 19.5705C160.397 18.7714 160.249 17.6261 159.462 17.0107C158.675 16.3974 157.548 16.547 156.941 17.3462C156.335 18.1453 156.485 19.2927 157.272 19.906Z"/><path fill="#36A9E1" d="M162.976 20.7414C162.924 20.1752 162.431 19.7607 161.874 19.8141C161.762 19.8248 161.653 19.8547 161.556 19.8996C161.556 19.8996 161.508 19.9209 161.417 19.9594C161.371 19.9786 161.316 20.0021 161.249 20.0299C161.215 20.0427 161.179 20.0577 161.142 20.0726C161.104 20.0876 161.064 20.1047 161.019 20.1218C160.933 20.156 160.838 20.1923 160.735 20.2329C160.632 20.2735 160.519 20.3141 160.399 20.359C160.159 20.4466 159.887 20.5449 159.589 20.6453C159.06 20.8248 158.452 21.0214 157.798 21.2158C157.625 21.2564 156.964 21.3739 156.476 20.9914C155.908 20.5491 155.927 19.7222 155.927 19.7222C155.927 19.7222 155.925 19.7222 155.925 19.7244C155.942 19.0427 155.969 18.406 156.005 17.8504C156.026 17.532 156.047 17.2414 156.07 16.9829C156.083 16.8547 156.091 16.7329 156.104 16.6218C156.114 16.5107 156.125 16.4081 156.135 16.3141C156.14 16.2671 156.146 16.2243 156.15 16.1816C156.154 16.141 156.161 16.1026 156.165 16.0662C156.173 15.9936 156.182 15.9338 156.188 15.8825C156.201 15.782 156.209 15.7308 156.209 15.7308C156.297 15.1709 155.923 14.6432 155.369 14.5534C155.332 14.547 155.294 14.5427 155.254 14.5406C155.399 14.5491 155.544 14.5876 155.681 14.6624C156.173 14.9316 156.356 15.5555 156.089 16.0555C156.036 16.156 155.965 16.2457 155.887 16.3205C155.887 16.3205 155.849 16.3568 155.778 16.4273C155.742 16.4615 155.698 16.5064 155.649 16.5577C155.624 16.5833 155.597 16.6111 155.567 16.641C155.538 16.6709 155.508 16.703 155.477 16.735C155.412 16.8013 155.342 16.8761 155.266 16.9573C155.188 17.0385 155.109 17.1282 155.02 17.2222C154.845 17.4124 154.652 17.6282 154.444 17.8654C154.439 17.8696 154.435 17.8739 154.431 17.8803C154.475 18.5107 154.511 19.2457 154.532 20.032C154.534 20.1325 154.536 20.2308 154.538 20.3333C154.54 20.4338 154.542 20.5363 154.545 20.6389C154.547 20.7414 154.547 20.844 154.549 20.9466V21.0235V21.0427V21.0769V21.0791V21.0855L154.551 21.1175C154.553 21.1624 154.553 21.2073 154.553 21.2543C154.553 21.3483 154.551 21.4423 154.545 21.5342C154.54 21.6261 154.532 21.7179 154.521 21.8077C154.511 21.8974 154.498 21.9829 154.479 22.062C154.462 22.141 154.441 22.2137 154.42 22.2714L154.404 22.3184L154.397 22.3376L154.395 22.3419V22.344L154.393 22.3483L154.376 22.3867L154.366 22.4124L154.353 22.4402C154.345 22.4573 154.336 22.4765 154.326 22.4957C154.288 22.5705 154.244 22.6474 154.197 22.7265C154.151 22.8055 154.098 22.8846 154.046 22.9615C153.993 23.0406 153.936 23.1197 153.88 23.1966C153.823 23.2735 153.764 23.3504 153.705 23.4252C153.682 23.453 153.661 23.4808 153.638 23.5085C153.633 23.515 153.627 23.5192 153.623 23.5256L153.57 23.5897L153.541 23.6239C153.537 23.6303 153.53 23.6346 153.526 23.641C153.532 23.6325 153.516 23.6538 153.518 23.6517L153.516 23.656L153.509 23.6624L153.497 23.6773L153.471 23.7073L153.423 23.765C153.389 23.8034 153.358 23.8419 153.326 23.8803C153.261 23.9573 153.196 24.032 153.133 24.109C152.689 24.6261 152.261 25.1068 151.872 25.5256C151.881 25.6197 151.891 25.7094 151.899 25.7991C151.933 26.1175 151.969 26.4081 152 26.6667C152.034 26.9252 152.066 27.1496 152.095 27.3355C152.11 27.4273 152.123 27.5107 152.135 27.5833C152.148 27.656 152.158 27.7158 152.167 27.7671C152.184 27.8675 152.196 27.9188 152.196 27.9188C152.31 28.4722 152.057 29.0171 151.609 29.297C151.413 29.4295 151.188 29.5 150.961 29.5128C151.277 29.5278 151.601 29.4252 151.859 29.1987C151.994 29.0791 152.104 28.9338 152.177 28.7799C152.177 28.7799 152.2 28.7308 152.247 28.641C152.27 28.5962 152.297 28.5406 152.331 28.4765C152.365 28.4124 152.404 28.3376 152.449 28.2564C152.537 28.0919 152.646 27.8932 152.775 27.6667C152.903 27.4423 153.051 27.188 153.215 26.9145C153.543 26.3675 153.939 25.7415 154.378 25.0812C154.433 24.9979 154.49 24.9167 154.545 24.8312C154.572 24.7906 154.601 24.7479 154.629 24.7051L154.671 24.641L154.692 24.609L154.702 24.594L154.709 24.5855L154.711 24.5812C154.711 24.5812 154.726 24.5598 154.719 24.5684C154.723 24.562 154.728 24.5577 154.732 24.5513L154.757 24.515L154.803 24.4466C154.808 24.4402 154.812 24.4338 154.816 24.4273C154.837 24.3974 154.858 24.3697 154.877 24.3397C154.934 24.2628 154.991 24.1859 155.05 24.109C155.109 24.032 155.17 23.9594 155.231 23.8867C155.292 23.8141 155.353 23.7436 155.416 23.6773C155.479 23.6111 155.54 23.547 155.601 23.4914C155.616 23.4765 155.63 23.4637 155.645 23.4508L155.668 23.4316L155.689 23.4145L155.723 23.3867L155.727 23.3846L155.729 23.3825L155.733 23.3803L155.75 23.3697L155.792 23.3419C155.843 23.3056 155.906 23.2671 155.978 23.2286C156.049 23.1902 156.127 23.156 156.209 23.1218C156.291 23.0876 156.375 23.0577 156.464 23.0278C156.55 22.9979 156.638 22.9722 156.729 22.9487C156.773 22.9359 156.817 22.9252 156.859 22.9145L156.889 22.9081L156.895 22.906H156.897L156.929 22.8974L156.948 22.8932L157.021 22.8739C157.12 22.8483 157.219 22.8226 157.316 22.7991C157.413 22.7756 157.512 22.75 157.608 22.7265C157.705 22.703 157.802 22.6795 157.897 22.656C158.658 22.4722 159.374 22.3162 159.99 22.1987C160.3 22.1389 160.582 22.0876 160.834 22.0449C160.961 22.0235 161.078 22.0043 161.188 21.9872C161.297 21.9701 161.398 21.9551 161.489 21.9423C161.535 21.9359 161.577 21.9295 161.617 21.9231C161.657 21.9167 161.695 21.9124 161.731 21.9081C161.802 21.8974 161.861 21.891 161.912 21.8846C162.011 21.8718 162.063 21.8675 162.063 21.8675C162.619 21.8098 163.027 21.3077 162.976 20.7414Z"/><path fill="#36A9E1" d="M151.085 26.3419C151.041 26.3867 150.999 26.4295 150.959 26.4701C151.089 26.6004 151.207 26.7158 151.308 26.8141C151.376 26.8782 151.435 26.9359 151.489 26.985C151.542 27.0342 151.588 27.0769 151.624 27.1111C151.698 27.1795 151.738 27.2137 151.738 27.2137C152.274 27.6838 152.335 28.5064 151.872 29.0534C151.794 29.1453 151.704 29.2243 151.609 29.2906C152.06 29.0107 152.31 28.4679 152.196 27.9124C152.196 27.9124 152.186 27.859 152.167 27.7607C152.158 27.7115 152.148 27.6496 152.135 27.5769C152.123 27.5043 152.11 27.4209 152.095 27.3291C152.066 27.1432 152.034 26.9188 152.001 26.6602C151.967 26.4017 151.931 26.1111 151.9 25.7927C151.891 25.703 151.881 25.6111 151.872 25.5192C151.809 25.5876 151.748 25.6538 151.687 25.7179C151.47 25.9487 151.268 26.1581 151.085 26.3419Z"/><path fill="#2FAC66" d="M154.208 15.4017C154.191 15.5149 154.191 15.6303 154.21 15.735C154.21 15.735 154.219 15.7884 154.233 15.8867C154.24 15.9359 154.248 15.9978 154.259 16.0705C154.263 16.1068 154.269 16.1453 154.273 16.1859C154.278 16.2265 154.284 16.2714 154.288 16.3184C154.299 16.4102 154.311 16.5128 154.322 16.6261C154.334 16.7372 154.345 16.859 154.358 16.9872C154.381 17.2457 154.406 17.5363 154.429 17.8547C154.429 17.8611 154.429 17.8696 154.431 17.876C154.435 17.8718 154.44 17.8675 154.444 17.8611C154.652 17.6218 154.848 17.4081 155.02 17.2179C155.109 17.1239 155.189 17.0342 155.267 16.953C155.342 16.8718 155.414 16.797 155.477 16.7308C155.509 16.6966 155.54 16.6666 155.568 16.6367C155.597 16.6068 155.624 16.579 155.65 16.5534C155.7 16.5021 155.744 16.4594 155.778 16.4231C155.85 16.3525 155.887 16.3162 155.887 16.3162C155.965 16.2414 156.035 16.1517 156.089 16.0513C156.355 15.5513 156.171 14.9273 155.681 14.6581C155.544 14.5833 155.399 14.5427 155.254 14.5363C155.25 14.5363 155.246 14.5363 155.241 14.5363C155.241 14.5363 155.241 14.5363 155.239 14.5363C154.738 14.5192 154.29 14.8846 154.208 15.4017Z"/><path fill="#36A9E1" d="M151.199 29.4551C151.112 29.4743 151.026 29.4829 150.94 29.4829C150.919 29.4829 150.898 29.4829 150.877 29.4808C150.782 29.4765 150.689 29.4615 150.601 29.4359C150.717 29.4765 150.837 29.5 150.959 29.5043C151.186 29.4936 151.411 29.4209 151.607 29.2885C151.485 29.3675 151.348 29.4231 151.199 29.4551Z"/><path fill="#008D36" d="M151.916 29.1175C152.39 28.5577 152.329 27.7158 151.779 27.2329C151.779 27.2329 151.737 27.1966 151.662 27.1282C151.624 27.094 151.577 27.0513 151.523 27C151.468 26.9487 151.407 26.891 151.338 26.8248C151.232 26.7244 151.112 26.6047 150.98 26.4722C150.847 26.6068 150.725 26.7244 150.622 26.8248C150.553 26.891 150.492 26.9509 150.437 27C150.382 27.0513 150.336 27.094 150.298 27.1282C150.222 27.1987 150.18 27.2329 150.18 27.2329C149.629 27.7137 149.568 28.5577 150.043 29.1175C150.201 29.3034 150.399 29.4338 150.612 29.5086C150.702 29.5342 150.797 29.5492 150.894 29.5534C150.915 29.5534 150.938 29.5556 150.959 29.5556C151.047 29.5556 151.136 29.547 151.224 29.5278C151.378 29.4957 151.516 29.438 151.643 29.359C151.744 29.2949 151.836 29.2137 151.916 29.1175Z"/></g><path d="M8.787 22.005C10.7203 22.005 12.1607 22.4883 13.108 23.455C14.0553 24.4023 14.529 25.63 14.529 27.138C14.529 27.3893 14.5 27.631 14.442 27.863C14.1133 28.037 13.7073 28.124 13.224 28.124C12.76 28.124 12.296 28.1047 11.832 28.066C11.8513 27.9113 11.861 27.7083 11.861 27.457C11.861 26.3163 11.5903 25.4077 11.049 24.731C10.5077 24.0543 9.75367 23.716 8.787 23.716C5.57767 23.716 3.973 26.3163 3.973 31.517C3.973 36.6983 5.57767 39.289 8.787 39.289C9.541 39.289 10.324 39.1053 11.136 38.738C11.948 38.3707 12.6343 37.868 13.195 37.23C13.7943 37.7133 14.181 38.477 14.355 39.521C12.6343 40.797 10.7783 41.435 8.787 41.435C6.44767 41.435 4.698 40.7873 3.538 39.492C2.57133 38.4287 1.972 36.8047 1.74 34.62C1.64333 33.7307 1.595 32.6963 1.595 31.517C1.595 25.1757 3.99233 22.005 8.787 22.005ZM16.8529 34.127C16.8529 29.4677 18.6702 27.138 22.3049 27.138C25.9395 27.138 27.7569 29.4677 27.7569 34.127C27.7569 36.273 27.4185 37.9743 26.7419 39.231C25.9685 40.7003 24.4895 41.435 22.3049 41.435C20.1202 41.435 18.6412 40.7003 17.8679 39.231C17.1912 37.9743 16.8529 36.273 16.8529 34.127ZM19.2309 34.069C19.2309 37.5877 20.2555 39.347 22.3049 39.347C24.3542 39.347 25.3789 37.5877 25.3789 34.069C25.3789 30.531 24.3542 28.762 22.3049 28.762C20.2555 28.762 19.2309 30.531 19.2309 34.069ZM48.5446 31.285L48.5156 33.663C48.5156 36.157 48.709 38.5157 49.0956 40.739C48.4576 40.9903 47.8293 41.116 47.2106 41.116C46.6113 41.116 46.1956 41.0967 45.9636 41.058C46.1956 38.4867 46.3116 36.2247 46.3116 34.272C46.3116 32.3 46.186 30.9273 45.9346 30.154C45.6833 29.3807 45.1323 28.994 44.2816 28.994C43.431 28.994 42.445 29.632 41.3236 30.908L41.2946 33.663C41.2946 36.157 41.488 38.5157 41.8746 40.739C41.2366 40.9903 40.6083 41.116 39.9896 41.116C39.3903 41.116 38.9746 41.0967 38.7426 41.058C38.9746 38.4867 39.0906 36.2247 39.0906 34.272C39.0906 32.3 38.965 30.9273 38.7136 30.154C38.4623 29.3807 37.9113 28.994 37.0606 28.994C36.21 28.994 35.2336 29.6127 34.1316 30.85C34.093 31.4493 34.0736 32.358 34.0736 33.576C34.0736 36.7467 34.2476 39.1633 34.5956 40.826C33.8996 41.0193 33.2713 41.116 32.7106 41.116C32.15 41.116 31.7536 41.0967 31.5216 41.058C31.8116 38.4287 31.9566 36.128 31.9566 34.156C31.9566 32.184 31.7633 30.038 31.3766 27.718C32.15 27.5247 32.759 27.428 33.2036 27.428C33.6483 27.428 33.9963 27.4667 34.2476 27.544V29.023C34.789 28.4623 35.4076 28.008 36.1036 27.66C36.819 27.312 37.5053 27.138 38.1626 27.138C39.7673 27.138 40.763 27.8823 41.1496 29.371C41.7296 28.6943 42.4063 28.153 43.1796 27.747C43.9723 27.341 44.707 27.138 45.3836 27.138C46.4856 27.138 47.288 27.486 47.7906 28.182C48.2933 28.8587 48.5446 29.893 48.5446 31.285ZM70.6628 31.285L70.6338 33.663C70.6338 36.157 70.8271 38.5157 71.2138 40.739C70.5758 40.9903 69.9475 41.116 69.3288 41.116C68.7295 41.116 68.3138 41.0967 68.0818 41.058C68.3138 38.4867 68.4298 36.2247 68.4298 34.272C68.4298 32.3 68.3041 30.9273 68.0528 30.154C67.8015 29.3807 67.2505 28.994 66.3998 28.994C65.5491 28.994 64.5631 29.632 63.4418 30.908L63.4128 33.663C63.4128 36.157 63.6061 38.5157 63.9928 40.739C63.3548 40.9903 62.7265 41.116 62.1078 41.116C61.5085 41.116 61.0928 41.0967 60.8608 41.058C61.0928 38.4867 61.2088 36.2247 61.2088 34.272C61.2088 32.3 61.0831 30.9273 60.8318 30.154C60.5805 29.3807 60.0295 28.994 59.1788 28.994C58.3281 28.994 57.3518 29.6127 56.2498 30.85C56.2111 31.4493 56.1918 32.358 56.1918 33.576C56.1918 36.7467 56.3658 39.1633 56.7138 40.826C56.0178 41.0193 55.3895 41.116 54.8288 41.116C54.2681 41.116 53.8718 41.0967 53.6398 41.058C53.9298 38.4287 54.0748 36.128 54.0748 34.156C54.0748 32.184 53.8815 30.038 53.4948 27.718C54.2681 27.5247 54.8771 27.428 55.3218 27.428C55.7665 27.428 56.1145 27.4667 56.3658 27.544V29.023C56.9071 28.4623 57.5258 28.008 58.2218 27.66C58.9371 27.312 59.6235 27.138 60.2808 27.138C61.8855 27.138 62.8811 27.8823 63.2678 29.371C63.8478 28.6943 64.5245 28.153 65.2978 27.747C66.0905 27.341 66.8251 27.138 67.5018 27.138C68.6038 27.138 69.4061 27.486 69.9088 28.182C70.4115 28.8587 70.6628 29.893 70.6628 31.285ZM75.671 37.259L75.7 34.91C75.7 31.952 75.526 29.5547 75.178 27.718C75.6226 27.544 76.1156 27.457 76.657 27.457C77.1983 27.457 77.73 27.486 78.252 27.544C77.962 30.1927 77.817 32.445 77.817 34.301C77.817 36.157 77.9426 37.462 78.194 38.216C78.4646 38.97 79.0446 39.347 79.934 39.347C80.8426 39.347 81.8866 38.7573 83.066 37.578C83.1046 36.998 83.124 36.1377 83.124 34.997C83.124 31.807 82.95 29.3807 82.602 27.718C83.3366 27.5247 83.9456 27.428 84.429 27.428C84.9123 27.428 85.328 27.4667 85.676 27.544C85.386 30.1733 85.241 32.5417 85.241 34.649C85.241 36.737 85.415 38.825 85.763 40.913C85.183 41.087 84.6803 41.174 84.255 41.174C83.8296 41.174 83.4236 41.1547 83.037 41.116L82.979 39.695C81.5483 40.855 80.224 41.435 79.006 41.435C77.8073 41.435 76.947 41.0967 76.425 40.42C75.9223 39.724 75.671 38.6703 75.671 37.259ZM100.697 31.314L100.668 33.663C100.668 36.157 100.861 38.5157 101.248 40.739C100.61 40.9903 99.9813 41.116 99.3626 41.116C98.7633 41.116 98.3476 41.0967 98.1156 41.058C98.3476 38.4867 98.4636 36.2247 98.4636 34.272C98.4636 32.3 98.3186 30.9273 98.0286 30.154C97.7579 29.3807 97.1489 28.994 96.2016 28.994C95.2543 28.994 94.1619 29.6127 92.9246 30.85C92.8859 31.4493 92.8666 32.358 92.8666 33.576C92.8666 36.7467 93.0406 39.1633 93.3886 40.826C92.6926 41.0193 92.0643 41.116 91.5036 41.116C90.9429 41.116 90.5466 41.0967 90.3146 41.058C90.6046 38.4287 90.7496 36.128 90.7496 34.156C90.7496 32.184 90.5563 30.038 90.1696 27.718C90.9429 27.5247 91.5519 27.428 91.9966 27.428C92.4413 27.428 92.7893 27.4667 93.0406 27.544V29.023C94.3746 27.7663 95.7086 27.138 97.0426 27.138C98.3766 27.138 99.3143 27.486 99.8556 28.182C100.416 28.8587 100.697 29.9027 100.697 31.314ZM108.33 33.576C108.33 36.7467 108.504 39.1633 108.852 40.826C108.156 41.0193 107.527 41.116 106.967 41.116C106.406 41.116 106.01 41.0967 105.778 41.058C106.068 38.4287 106.213 36.0217 106.213 33.837C106.213 31.633 106.039 29.5933 105.691 27.718C106.348 27.5247 106.938 27.428 107.46 27.428C107.982 27.428 108.417 27.4667 108.765 27.544C108.475 30.5407 108.33 32.5513 108.33 33.576ZM108.881 23.223C108.881 24.4217 108.262 25.021 107.025 25.021C106.058 25.021 105.575 24.528 105.575 23.542C105.575 22.324 106.193 21.715 107.431 21.715C108.397 21.715 108.881 22.2177 108.881 23.223ZM113.106 36.302C113.106 36.302 113.125 34.1463 113.164 29.835C113.164 29.545 113.154 29.3227 113.135 29.168C112.323 29.168 111.743 29.1777 111.395 29.197C111.279 28.8877 111.221 28.588 111.221 28.298C111.221 27.9887 111.24 27.7567 111.279 27.602H113.048L112.903 25.456C113.386 25.3013 113.889 25.224 114.411 25.224C114.952 25.224 115.397 25.2627 115.745 25.34L115.484 27.573C116.547 27.5537 117.62 27.4957 118.703 27.399C118.819 27.6503 118.877 27.9307 118.877 28.24C118.877 28.53 118.838 28.8877 118.761 29.313C118.045 29.2743 116.914 29.2357 115.368 29.197C115.329 29.5837 115.31 30.154 115.31 30.908V36.795C115.31 37.2977 115.329 37.7133 115.368 38.042C115.426 38.3513 115.551 38.6413 115.745 38.912C115.957 39.1633 116.257 39.289 116.644 39.289C117.494 39.289 118.306 38.9893 119.08 38.39C119.486 38.97 119.689 39.753 119.689 40.739C118.625 41.203 117.697 41.435 116.905 41.435C116.131 41.435 115.513 41.3287 115.049 41.116C114.585 40.9227 114.227 40.6907 113.976 40.42C113.724 40.13 113.531 39.7337 113.396 39.231C113.202 38.5157 113.106 37.5393 113.106 36.302ZM127.131 41.522C126.532 43.32 125.846 44.6927 125.072 45.64C124.299 46.6067 123.381 47.09 122.317 47.09C121.254 47.09 120.258 46.7807 119.33 46.162C119.408 45.0407 119.727 44.2383 120.287 43.755C120.867 44.5477 121.573 44.944 122.404 44.944C122.849 44.944 123.352 44.567 123.912 43.813C124.473 43.059 124.927 42.1793 125.275 41.174C124.773 39.3953 124.019 37.201 123.013 34.591C122.027 31.9617 121.08 29.7287 120.171 27.892C120.945 27.5633 121.641 27.399 122.259 27.399C122.897 27.399 123.323 27.4087 123.535 27.428C123.729 30.1927 124.686 33.6437 126.406 37.781H126.522C127.16 36.563 127.779 34.8907 128.378 32.764C128.997 30.6373 129.345 28.8683 129.422 27.457C129.77 27.4183 130.031 27.399 130.205 27.399C131.114 27.399 131.868 27.5633 132.467 27.892C131.984 28.9747 131.124 31.0723 129.886 34.185C128.649 37.2783 127.731 39.724 127.131 41.522ZM175.815 41C175.119 41.174 174.481 41.261 173.901 41.261C173.34 41.261 172.973 41.2513 172.799 41.232C171.987 38.332 170.972 35.026 169.754 31.314C168.555 27.5827 167.521 24.731 166.651 22.759C167.463 22.3723 168.178 22.179 168.797 22.179C169.416 22.179 169.831 22.1887 170.044 22.208C170.315 24.2767 170.885 26.935 171.755 30.183C172.625 33.431 173.524 36.1957 174.452 38.477H174.626C175.457 36.4277 176.327 33.634 177.236 30.096C178.164 26.558 178.667 23.9867 178.744 22.382C179.015 22.324 179.285 22.295 179.556 22.295C180.503 22.295 181.286 22.4883 181.905 22.875C181.364 24.1897 180.329 27.0607 178.802 31.488C177.294 35.896 176.298 39.0667 175.815 41ZM193.833 33.866C192.383 34.33 190.933 34.562 189.483 34.562C188.052 34.562 186.979 34.5137 186.264 34.417C186.264 36.157 186.544 37.4233 187.105 38.216C187.627 38.97 188.439 39.347 189.541 39.347C190.643 39.347 191.842 38.7477 193.137 37.549C193.698 38.129 194.055 38.8927 194.21 39.84C192.644 40.9033 191.01 41.435 189.309 41.435C187.279 41.435 185.868 40.7777 185.075 39.463C184.282 38.129 183.886 36.3697 183.886 34.185C183.886 32.0003 184.321 30.2797 185.191 29.023C186.08 27.7663 187.521 27.138 189.512 27.138C190.904 27.138 192.016 27.5633 192.847 28.414C193.698 29.2453 194.123 30.241 194.123 31.401C194.142 32.5417 194.046 33.3633 193.833 33.866ZM189.309 28.762C187.53 28.762 186.525 30.0863 186.293 32.735C187.124 32.8317 188.062 32.88 189.106 32.88C190.169 32.88 191.001 32.7833 191.6 32.59C191.677 31.894 191.716 31.5363 191.716 31.517C191.716 30.763 191.523 30.1153 191.136 29.574C190.749 29.0327 190.14 28.762 189.309 28.762ZM200.276 29.052C200.721 28.5493 201.243 28.1337 201.842 27.805C202.441 27.457 203.031 27.283 203.611 27.283C204.191 27.283 204.665 27.602 205.032 28.24C205.399 28.878 205.583 29.6513 205.583 30.56C205.583 30.8887 205.564 31.169 205.525 31.401C205.177 31.575 204.819 31.662 204.452 31.662C204.104 31.662 203.679 31.6233 203.176 31.546C203.215 31.2367 203.234 31.0337 203.234 30.937C203.234 29.8737 202.847 29.342 202.074 29.342C201.861 29.342 201.571 29.4773 201.204 29.748C200.837 30.0187 200.489 30.357 200.16 30.763C200.121 31.3817 200.102 32.3193 200.102 33.576C200.102 36.7467 200.276 39.1633 200.624 40.826C199.928 41.0193 199.338 41.116 198.855 41.116C198.372 41.116 197.937 41.0967 197.55 41.058C197.84 38.4287 197.985 36.128 197.985 34.156C197.985 32.184 197.792 30.038 197.405 27.718C198.178 27.5247 198.787 27.428 199.232 27.428C199.677 27.428 200.025 27.4667 200.276 27.544V29.052ZM216.188 37.346C216.188 38.7187 215.743 39.7433 214.854 40.42C213.964 41.0967 212.853 41.435 211.519 41.435C209.663 41.435 208.039 40.9033 206.647 39.84C206.724 39.4147 206.869 38.999 207.082 38.593C207.314 38.1677 207.517 37.8487 207.691 37.636L207.981 37.346C208.986 38.7767 210.185 39.492 211.577 39.492C212.253 39.492 212.804 39.347 213.23 39.057C213.674 38.767 213.897 38.3707 213.897 37.868C213.897 37.346 213.655 36.882 213.172 36.476C212.708 36.07 212.137 35.7317 211.461 35.461C210.784 35.171 210.107 34.8713 209.431 34.562C208.754 34.2333 208.174 33.7693 207.691 33.17C207.227 32.5707 206.995 31.8553 206.995 31.024C206.995 29.8253 207.381 28.878 208.155 28.182C208.928 27.486 210.088 27.138 211.635 27.138C213.201 27.138 214.322 27.4763 214.999 28.153C215.695 28.8297 216.043 29.893 216.043 31.343C215.617 31.4977 215.221 31.575 214.854 31.575C214.486 31.575 214.032 31.517 213.491 31.401C213.529 31.1303 213.549 30.9177 213.549 30.763C213.549 30.1637 213.375 29.6707 213.027 29.284C212.679 28.878 212.176 28.675 211.519 28.675C210.881 28.675 210.349 28.8297 209.924 29.139C209.498 29.429 209.286 29.8833 209.286 30.502C209.286 31.1013 209.518 31.6233 209.982 32.068C210.465 32.5127 211.045 32.88 211.722 33.17C212.398 33.4407 213.075 33.7307 213.752 34.04C214.428 34.33 214.999 34.7553 215.463 35.316C215.946 35.8573 216.188 36.534 216.188 37.346ZM228.667 33.866C227.217 34.33 225.767 34.562 224.317 34.562C222.886 34.562 221.813 34.5137 221.098 34.417C221.098 36.157 221.378 37.4233 221.939 38.216C222.461 38.97 223.273 39.347 224.375 39.347C225.477 39.347 226.676 38.7477 227.971 37.549C228.532 38.129 228.889 38.8927 229.044 39.84C227.478 40.9033 225.844 41.435 224.143 41.435C222.113 41.435 220.702 40.7777 219.909 39.463C219.116 38.129 218.72 36.3697 218.72 34.185C218.72 32.0003 219.155 30.2797 220.025 29.023C220.914 27.7663 222.355 27.138 224.346 27.138C225.738 27.138 226.85 27.5633 227.681 28.414C228.532 29.2453 228.957 30.241 228.957 31.401C228.976 32.5417 228.88 33.3633 228.667 33.866ZM224.143 28.762C222.364 28.762 221.359 30.0863 221.127 32.735C221.958 32.8317 222.896 32.88 223.94 32.88C225.003 32.88 225.835 32.7833 226.434 32.59C226.511 31.894 226.55 31.5363 226.55 31.517C226.55 30.763 226.357 30.1153 225.97 29.574C225.583 29.0327 224.974 28.762 224.143 28.762Z"/><defs><clipPath id="clip0_108_2"><rect width="32" height="43" fill="#fff" transform="translate(135)"/></clipPath></defs></svg>