<svg xmlns="http://www.w3.org/2000/svg" width="88" height="116" fill="currentColor" enableBackground="new 0 0 21 22" viewBox="0 0 88 116"><g clip-path="url(#clip0_39_29)"><path fill="#000" d="M27.1691 92.3896C27.1691 94.2111 29.7731 95.6983 32.9559 95.6983H55.4723C58.6551 95.6983 61.2591 94.2111 61.2591 92.3896C61.2591 90.5681 58.6551 89.0809 55.4723 89.0809H32.9559C29.7731 89.0809 27.1691 90.5681 27.1691 92.3896Z"/><path fill="#000" d="M28.3322 100.448C28.3322 102.27 30.9362 103.757 34.119 103.757H53.9793C57.162 103.757 59.7661 102.264 59.7661 100.448C59.7661 98.6323 57.162 97.1393 53.9793 97.1393H34.119C30.9362 97.1335 28.3322 98.6265 28.3322 100.448Z"/><path fill="#000" d="M30.1204 108.374C30.1204 110.195 31.7059 111.683 33.6445 111.683C35.5831 111.683 37.1687 112.657 37.1687 113.844C37.1687 115.032 39.7728 116.006 42.9555 116.006H45.3744C48.5571 116.006 51.1612 115.032 51.1612 113.844C51.1612 112.657 52.7236 111.683 54.6333 111.683C56.5429 111.683 58.0996 110.195 58.0996 108.374C58.0996 106.552 55.4955 105.065 52.3128 105.065H35.9072C32.7244 105.065 30.1204 106.552 30.1204 108.374Z"/><path fill="#000" d="M84.5453 26.7231C82.3347 21.5122 79.1635 16.8316 75.1301 12.814C71.0967 8.79626 66.3978 5.64321 61.1666 3.4355C55.7617 1.15862 50.0096 0 44.0897 0H43.9219C37.9904 0 32.2441 1.15862 26.8276 3.44126C21.5964 5.64321 16.8975 8.80203 12.8641 12.8197C8.83067 16.8374 5.66529 21.5122 3.45472 26.7231C1.16315 32.1242 0 37.8539 0 43.7565C0 55.5156 8.44874 68.3814 8.80752 68.9233C10.4336 71.3788 21.9089 87.1326 29.5359 87.0173H58.4641C66.8839 86.4409 77.5664 71.3731 79.1925 68.9233C79.5513 68.3814 88 55.5098 88 43.7565C88 37.8539 86.8369 32.1242 84.5453 26.7231ZM74.3605 65.7472C72.5261 68.514 63.2325 81.2588 58.4583 81.2588H46.8384H41.0516H29.5359C24.8659 80.9129 15.4739 68.514 13.6395 65.7529C13.5585 65.6319 5.78681 53.769 5.78681 43.7623C5.78681 22.8265 22.8753 5.78732 43.8872 5.77003C43.9624 5.77003 44.0376 5.77003 44.1128 5.77003C65.1247 5.79308 82.2132 22.8265 82.2132 43.7623C82.2132 53.769 74.4415 65.6319 74.3605 65.7472Z"/><path fill="#FFD500" d="M44.6801 47.7684C47.3742 47.3328 49.2038 44.8042 48.7666 42.1206C48.3293 39.4369 45.7908 37.6144 43.0967 38.05C40.4025 38.4855 38.573 41.0141 39.0102 43.6978C39.4474 46.3814 41.9859 48.2039 44.6801 47.7684Z"/><path fill="#FFD500" d="M29.4549 42.425C29.2118 40.9147 30.2419 39.491 31.7638 39.2489C31.8969 39.2258 32.0358 39.2143 32.1689 39.2143C31.405 39.197 30.6354 39.4967 30.0741 40.102C29.3044 40.9263 29.1366 42.0906 29.5475 43.0648C29.5359 42.9841 29.5243 42.9092 29.5185 42.84C29.478 42.5691 29.4549 42.425 29.4549 42.425Z"/><path fill="#FFD500" d="M34.9465 42.448C34.9465 42.448 34.9234 42.5921 34.8829 42.8573C34.8655 42.9899 34.8424 43.157 34.8134 43.353C34.8019 43.451 34.7845 43.5548 34.7729 43.6643C34.7614 43.7738 34.744 43.8949 34.7324 44.0217C34.7035 44.2695 34.6688 44.5462 34.6398 44.8517C34.6051 45.1515 34.5762 45.48 34.5415 45.8259C34.4778 46.5234 34.4084 47.3073 34.3447 48.1662C34.3389 48.2238 34.3389 48.2815 34.3331 48.3449C35.4442 49.5957 36.6999 51.0656 38.002 52.6623C38.1698 52.8698 38.3434 53.0831 38.5112 53.2906C38.679 53.5039 38.8526 53.7172 39.0262 53.9362C39.1998 54.1552 39.3734 54.3685 39.5471 54.5876L39.6801 54.7547L39.7149 54.7951L39.7727 54.8642L39.7785 54.87L39.7901 54.8815L39.8422 54.9449C39.9174 55.0372 39.9984 55.1352 40.0736 55.2332C40.2299 55.4291 40.3804 55.6367 40.5192 55.8442C40.6639 56.0517 40.797 56.2592 40.9185 56.4667C41.04 56.6742 41.1558 56.8817 41.2484 57.0835C41.341 57.2852 41.4162 57.4755 41.4625 57.6311L41.503 57.7637L41.5204 57.8155L41.5261 57.8271V57.8328V57.8444L41.5551 57.9539L41.5724 58.0288L41.5898 58.1095C41.6014 58.1614 41.6129 58.2133 41.6245 58.2709C41.665 58.49 41.6997 58.7321 41.7229 58.9799C41.7518 59.2278 41.7692 59.4814 41.7808 59.7408C41.7923 60.0002 41.8039 60.2596 41.8039 60.519C41.8039 60.7784 41.8039 61.0435 41.7981 61.3029C41.7923 61.4009 41.7923 61.4989 41.7865 61.5911C41.7865 61.6084 41.7865 61.6315 41.7808 61.6488C41.775 61.7237 41.775 61.7986 41.7692 61.8736C41.7692 61.9139 41.7634 61.9543 41.7634 61.9946C41.7634 62.0177 41.7634 62.035 41.7576 62.0523C41.7576 62.0235 41.7576 62.0926 41.7576 62.0926V62.1042V62.1272V62.1791L41.7518 62.2828C41.746 62.352 41.746 62.4212 41.7403 62.4904C41.7345 62.6287 41.7229 62.7613 41.7171 62.8996C41.6997 63.1705 41.6882 63.4415 41.6708 63.7124C41.5609 65.5108 41.422 67.2113 41.2715 68.7273C41.4798 68.9463 41.6824 69.1596 41.8849 69.3729C42.481 69.9954 43.0423 70.5603 43.54 71.0618C43.6615 71.1829 43.7772 71.2982 43.8872 71.4077C43.9971 71.2982 44.1186 71.1829 44.2344 71.0618C44.732 70.5661 45.2934 70.0012 45.8894 69.3729C46.0572 69.2 46.225 69.0213 46.3986 68.8368C46.2424 67.2977 46.1035 65.5569 45.9878 63.7124C45.9704 63.4415 45.9588 63.1763 45.9415 62.8996C45.9357 62.7613 45.9241 62.6287 45.9183 62.4904C45.9125 62.4212 45.9125 62.352 45.9068 62.2828L45.901 62.1791V62.1272V62.1042V62.0926C45.901 62.0926 45.901 62.0235 45.901 62.0523C45.901 62.035 45.901 62.0177 45.8952 61.9946C45.8952 61.9543 45.8952 61.9139 45.8894 61.8736C45.8836 61.7986 45.8836 61.7237 45.8778 61.6488C45.8778 61.6257 45.8778 61.6084 45.872 61.5854C45.8662 61.4874 45.8662 61.3952 45.8605 61.2972C45.8547 61.0378 45.8547 60.7784 45.8547 60.5132C45.8547 60.2538 45.8662 59.9944 45.8778 59.735C45.8894 59.4757 45.9125 59.222 45.9357 58.9799C45.9646 58.7321 45.9936 58.4957 46.0341 58.2709C46.0456 58.2133 46.0572 58.1614 46.0688 58.1095L46.0861 58.0288L46.1035 57.9539L46.1324 57.8444V57.8328V57.8271L46.1382 57.8155L46.1556 57.7637L46.1961 57.6311C46.2424 57.4697 46.3176 57.2795 46.4102 57.0835C46.5028 56.8817 46.6185 56.68 46.7401 56.4667C46.8616 56.2592 47.0005 56.0517 47.1393 55.8442C47.2782 55.6367 47.4287 55.4291 47.5849 55.2332C47.6602 55.1352 47.7412 55.0372 47.8164 54.9449L47.8685 54.8815L47.8801 54.87L47.8858 54.8642L47.9437 54.7951L47.9784 54.7547L48.1057 54.5876C48.2793 54.3685 48.453 54.1495 48.6266 53.9362C48.8002 53.7229 48.9738 53.5039 49.1416 53.2906C49.3152 53.0773 49.483 52.8698 49.6508 52.6623C50.9934 51.0137 52.2896 49.5035 53.4296 48.2238C53.4296 48.2065 53.4296 48.1835 53.4238 48.1662C53.3602 47.3073 53.2965 46.5234 53.2271 45.8259C53.1924 45.48 53.1634 45.1515 53.1287 44.8517C53.094 44.552 53.065 44.2753 53.0361 44.0217C53.0187 43.8949 53.0072 43.7796 52.9956 43.6643C52.9782 43.5548 52.9667 43.451 52.9551 43.353C52.9319 43.157 52.9088 42.9956 52.8857 42.8573C52.8451 42.5921 52.822 42.448 52.822 42.448C52.7757 42.1598 52.7699 41.8485 52.8162 41.5488C53.0419 40.1538 54.2745 39.1739 55.6517 39.2143C54.6275 39.1739 53.6148 39.7042 53.094 40.6669C53.094 40.6669 53.0245 40.7937 52.8914 41.03C52.822 41.1453 52.741 41.2952 52.6426 41.4623C52.5905 41.5488 52.5384 41.6353 52.4806 41.7333C52.4227 41.8312 52.3591 41.9292 52.2954 42.0388C52.1681 42.2578 52.0176 42.4941 51.8556 42.7478C51.6994 43.0072 51.52 43.2838 51.329 43.5778C50.9529 44.1658 50.5188 44.8287 50.0385 45.5434C49.1995 46.7885 48.2099 48.2008 47.122 49.6879V49.6822C47.122 49.6822 45.7968 51.4806 43.8293 51.4806C42.1338 51.4806 40.8896 50.126 40.5771 49.7513C39.4718 48.2411 38.4649 46.8058 37.6085 45.5434C37.1282 44.8287 36.6941 44.1658 36.318 43.5778C36.1328 43.2838 35.9534 43.0072 35.7914 42.7478C35.6294 42.4884 35.4847 42.252 35.3516 42.0388C35.288 41.9292 35.2243 41.8312 35.1664 41.7333C35.1086 41.6353 35.0565 41.543 35.0044 41.4623C34.9581 41.3816 34.9118 41.3067 34.8713 41.2375C34.9002 41.3413 34.9234 41.445 34.9407 41.5488C34.9986 41.8485 34.9986 42.1598 34.9465 42.448Z"/><path fill="#ED7004" d="M26.5325 53.6999C28.6968 52.0455 29.1018 48.9501 27.441 46.7943C25.7802 44.6384 22.6727 44.2349 20.5084 45.8893C18.3441 47.5436 17.9391 50.639 19.5999 52.7949C21.2607 54.9507 24.3682 55.36 26.5325 53.6999Z"/><path fill="#ED7004" d="M34.5589 40.6669C34.5589 40.6669 34.6283 40.7937 34.7614 41.03C34.7961 41.0934 34.8367 41.1626 34.8772 41.2375C34.5357 40.027 33.4131 39.197 32.1573 39.2143C32.817 39.2258 33.4767 39.4737 33.9976 39.9579C34.2348 40.1654 34.42 40.4132 34.5589 40.6669Z"/><path fill="#ED7004" d="M42.8976 79.4084C42.8397 79.3911 42.7877 79.3796 42.7356 79.3566C42.6835 79.3335 42.6256 79.322 42.5736 79.2989C41.4856 78.8839 40.6292 77.9443 40.3746 76.7281C40.3109 76.4283 40.2935 76.1228 40.3051 75.8231C40.3167 75.6444 40.3398 75.4715 40.3746 75.2985C40.3746 75.2985 40.4035 75.1544 40.4556 74.8893C40.4787 74.7567 40.5077 74.5895 40.5424 74.3935C40.5771 74.1975 40.6118 73.9727 40.6523 73.7249C40.7333 73.2234 40.8201 72.6181 40.9127 71.9207C41.0053 71.2232 41.1037 70.4392 41.1905 69.5804C41.2194 69.3037 41.2484 69.0212 41.2773 68.733C40.2357 67.6321 39.0957 66.3754 37.9152 65.0208C37.7416 64.8191 37.5622 64.6116 37.3828 64.4041C37.296 64.3003 37.2034 64.1966 37.1166 64.0928L36.9835 63.9372L36.9141 63.8565L36.8793 63.8161L36.862 63.7988L36.8562 63.7873C36.8562 63.7873 36.8157 63.7354 36.833 63.7585C36.8215 63.7469 36.8099 63.7297 36.7925 63.7124L36.7115 63.6201L36.5668 63.4472C36.5553 63.4299 36.5379 63.4184 36.5263 63.4011C36.4627 63.3262 36.4048 63.2512 36.3412 63.1763C36.1791 62.9745 36.0171 62.767 35.8609 62.5595C35.7046 62.352 35.5541 62.1387 35.4037 61.9254C35.259 61.7122 35.1144 61.4989 34.987 61.2914C34.8597 61.0781 34.7324 60.8706 34.634 60.6688C34.6109 60.617 34.582 60.5708 34.5588 60.519L34.5241 60.444L34.4952 60.3749L34.4489 60.2711L34.4431 60.2596V60.2538L34.4373 60.2423L34.4199 60.1904L34.3736 60.0636C34.3158 59.908 34.2579 59.712 34.2116 59.4987C34.1653 59.2854 34.1248 59.0491 34.0959 58.8127C34.0669 58.5706 34.0438 58.3228 34.0322 58.0749C34.0206 57.8271 34.0091 57.5734 34.0091 57.3198C34.0091 57.193 34.0091 57.0719 34.0149 56.9509L34.0206 56.8644V56.8471V56.8414V56.7491V56.6973V56.4897C34.0264 56.2131 34.0264 55.9306 34.0322 55.6597C34.038 55.383 34.0438 55.1121 34.0496 54.8354C34.0554 54.5645 34.0612 54.2936 34.0669 54.0226C34.1248 51.9533 34.2174 50.0107 34.3389 48.3391C34.2926 48.2872 34.2463 48.2353 34.2 48.1834C33.6271 47.5379 33.089 46.9614 32.6145 46.4484C32.3714 46.1948 32.1515 45.9527 31.9374 45.7336C31.7291 45.5146 31.5323 45.3128 31.3529 45.1342C31.2661 45.0419 31.1793 44.9612 31.1041 44.8805C31.0231 44.7998 30.9478 44.7249 30.8784 44.6557C30.7395 44.5174 30.618 44.4021 30.5196 44.3041C30.3229 44.1139 30.2187 44.0159 30.2187 44.0159C29.9178 43.7392 29.6921 43.4106 29.5474 43.059C29.559 43.1397 29.5706 43.2319 29.5822 43.3299C29.5937 43.4279 29.6053 43.5317 29.6227 43.6412C29.6342 43.7507 29.6458 43.8718 29.6632 43.9986C29.6921 44.2465 29.721 44.5289 29.75 44.8286C29.7847 45.1284 29.8078 45.457 29.8426 45.8028C29.9062 46.5003 29.9641 47.2842 30.022 48.1431C30.1203 49.6418 30.1956 51.3596 30.2419 53.1984C30.2419 53.1984 30.2361 53.1984 30.2361 53.1926C30.2361 53.1926 30.2824 55.4234 28.7257 56.6166C27.3832 57.6426 25.5661 57.3256 25.0916 57.2218C23.2861 56.6973 21.6137 56.1727 20.167 55.6827C19.3511 55.4061 18.5988 55.1467 17.9391 54.9103C17.6093 54.7893 17.2968 54.6798 17.0132 54.5702C16.7297 54.4607 16.4693 54.3627 16.232 54.2705C16.1163 54.2244 16.0005 54.184 15.8964 54.1379C15.7922 54.0976 15.6938 54.0572 15.6012 54.0226C15.4161 53.9477 15.2656 53.8843 15.1383 53.8324C14.8895 53.7287 14.7564 53.671 14.7564 53.671C14.4902 53.5557 14.1893 53.4693 13.8826 53.4405C12.349 53.2963 10.9949 54.4204 10.8503 55.9421C10.7056 57.4697 11.834 58.8185 13.3617 58.9626C13.3617 58.9626 13.5064 58.9741 13.7784 59.0087C13.9115 59.026 14.0793 59.0433 14.2761 59.0721C14.3744 59.0837 14.4786 59.101 14.5885 59.1125C14.6985 59.1298 14.82 59.1471 14.9415 59.1644C15.1904 59.1989 15.4681 59.2393 15.7691 59.2854C16.07 59.3315 16.394 59.3834 16.7412 59.441C17.4357 59.5563 18.2169 59.6947 19.0617 59.8561C20.7573 60.1789 22.7248 60.5939 24.8196 61.0896C25.08 61.153 25.3462 61.2164 25.6124 61.2798C25.8786 61.3432 26.1448 61.4124 26.4168 61.4758C26.683 61.545 26.955 61.6084 27.2269 61.6776L27.4295 61.7295L27.4816 61.741L27.5684 61.764H27.5741L27.5915 61.7698L27.6725 61.7871C27.7883 61.8159 27.9098 61.8447 28.0313 61.8793C28.2743 61.9427 28.5174 62.0177 28.7604 62.0926C28.9977 62.1733 29.235 62.254 29.4606 62.3462C29.6863 62.4385 29.9004 62.5307 30.0972 62.6344C30.2939 62.7324 30.4675 62.842 30.6064 62.94L30.7222 63.0149L30.7685 63.0437L30.78 63.0495L30.7858 63.0552L30.7974 63.061L30.89 63.1359L30.9478 63.182L31.0115 63.2339C31.052 63.2685 31.0925 63.3031 31.133 63.3434C31.3008 63.4933 31.4744 63.6662 31.6423 63.8449C31.8159 64.0236 31.9837 64.2139 32.1515 64.4098C32.3193 64.6058 32.4871 64.8076 32.6492 65.0093C32.8112 65.2168 32.9674 65.4243 33.1237 65.6319C33.1816 65.7126 33.2394 65.7875 33.2915 65.8682C33.3031 65.8855 33.3147 65.9028 33.3262 65.9201L33.4535 66.1045L33.523 66.2025C33.5346 66.2198 33.5461 66.2371 33.5577 66.2486C33.5403 66.2256 33.5808 66.2832 33.5808 66.2832L33.5866 66.2947L33.604 66.3178L33.6329 66.3582L33.6908 66.4446L33.8065 66.6175C33.8818 66.7328 33.9628 66.8424 34.038 66.9576C34.1943 67.1824 34.3447 67.4073 34.4952 67.6321C35.7046 69.4132 36.7925 71.1021 37.6953 72.5778C38.1466 73.3156 38.5517 73.9958 38.9047 74.6068C39.2577 75.2178 39.5586 75.7481 39.8017 76.1977C39.9232 76.4226 40.0331 76.6185 40.1257 76.7915C40.2183 76.9644 40.2993 77.1143 40.3572 77.2353C40.4845 77.4774 40.5482 77.61 40.5482 77.61C40.7507 78.025 41.0458 78.4228 41.422 78.7398C42.1338 79.3508 43.0191 79.6275 43.8929 79.5871C43.5573 79.5698 43.2275 79.5064 42.9092 79.4027C42.9034 79.4084 42.8976 79.4084 42.8976 79.4084Z"/><path fill="#FAB600" d="M30.2187 44.0217C30.2187 44.0217 30.3229 44.1197 30.5196 44.3099C30.618 44.4021 30.7395 44.5232 30.8784 44.6615C30.9479 44.7307 31.0231 44.8056 31.1041 44.8863C31.1851 44.967 31.2661 45.0535 31.3529 45.1399C31.5323 45.3186 31.7233 45.5204 31.9374 45.7394C32.1515 45.9585 32.3714 46.2006 32.6145 46.4542C33.0948 46.9672 33.6271 47.5494 34.2 48.1892C34.2463 48.2411 34.2926 48.293 34.3389 48.3449C34.3447 48.2872 34.3447 48.2296 34.3505 48.1662C34.4141 47.3073 34.4778 46.5234 34.5472 45.8259C34.582 45.48 34.6109 45.1515 34.6456 44.8517C34.6803 44.552 34.7093 44.2753 34.7382 44.0217C34.7556 43.8949 34.7671 43.7796 34.7787 43.6643C34.7961 43.5548 34.8076 43.451 34.8192 43.353C34.8424 43.157 34.8655 42.9956 34.8887 42.8573C34.9292 42.5921 34.9523 42.448 34.9523 42.448C34.9986 42.1598 35.0044 41.8485 34.9581 41.5488C34.9407 41.4393 34.9176 41.3355 34.8887 41.2375C34.8424 41.1626 34.8076 41.0934 34.7729 41.03C34.6398 40.7937 34.5704 40.6669 34.5704 40.6669C34.4315 40.4132 34.2405 40.1654 34.0149 39.9521C33.494 39.4679 32.8343 39.2258 32.1747 39.2085C32.0416 39.2085 31.9085 39.22 31.7696 39.2431C30.2534 39.4852 29.2176 40.909 29.4607 42.4192C29.4607 42.4192 29.4838 42.5633 29.5185 42.8285C29.5301 42.8976 29.5359 42.9668 29.5475 43.0533C29.6921 43.4164 29.9178 43.7392 30.2187 44.0217Z"/><path fill="#ED7004" d="M41.3756 78.3824C40.1025 76.9125 40.2703 74.6875 41.746 73.4194C41.746 73.4194 41.8559 73.3214 42.0585 73.1427C42.1626 73.0505 42.2842 72.941 42.4288 72.8026C42.5735 72.67 42.7413 72.5144 42.9265 72.3415C43.21 72.0763 43.5283 71.7651 43.8871 71.4134C43.7772 71.3039 43.6556 71.1886 43.5399 71.0676C43.0422 70.5719 42.4809 70.007 41.8849 69.3787C41.6881 69.1711 41.4798 68.9579 41.2715 68.7331C41.2425 69.0213 41.2136 69.3037 41.1847 69.5804C41.0921 70.4393 40.9937 71.2232 40.9069 71.9207C40.8143 72.6182 40.7275 73.2234 40.6465 73.7249C40.606 73.9728 40.5713 74.1976 40.5365 74.3936C40.5018 74.5895 40.4729 74.7509 40.4497 74.8893C40.4034 75.1602 40.3687 75.2985 40.3687 75.2985C40.334 75.4657 40.3109 75.6444 40.2993 75.8231C40.2819 76.1228 40.3051 76.4283 40.3687 76.7281C40.6233 77.9443 41.4798 78.8897 42.5677 79.2989C42.6198 79.322 42.6719 79.3393 42.7297 79.3566C42.7876 79.3739 42.8397 79.3912 42.8918 79.4084C42.8976 79.4084 42.8976 79.4084 42.9033 79.4084C42.3305 79.2125 41.8039 78.8724 41.3756 78.3824Z"/><path fill="#36A9E1" d="M61.2476 53.6998C63.4118 55.3542 66.5136 54.9507 68.1802 52.7949C69.841 50.639 69.4359 47.5494 67.2716 45.8893C65.1074 44.2349 62.0056 44.6384 60.339 46.7943C58.6724 48.9501 59.0833 52.0455 61.2476 53.6998Z"/><path fill="#36A9E1" d="M76.9356 55.9537C76.791 54.4262 75.4368 53.3079 73.9033 53.452C73.5966 53.4808 73.2957 53.5615 73.0295 53.6826C73.0295 53.6826 72.8964 53.7402 72.6476 53.844C72.5203 53.8959 72.3698 53.9593 72.1847 54.0342C72.0921 54.0688 71.9937 54.1091 71.8895 54.1495C71.7854 54.1898 71.6754 54.2359 71.5539 54.2821C71.3166 54.3743 71.0562 54.4723 70.7727 54.5818C70.4891 54.6913 70.1766 54.8008 69.8468 54.9219C69.1871 55.1582 68.4406 55.4234 67.6189 55.6943C66.1664 56.1785 64.494 56.7088 62.6943 57.2334C62.2198 57.3429 60.4027 57.6599 59.0602 56.6281C57.4977 55.4349 57.5498 53.2041 57.5498 53.2041C57.5498 53.2041 57.544 53.2041 57.544 53.2099C57.5903 51.3711 57.6656 49.6534 57.7639 48.1546C57.8218 47.2958 57.8797 46.5118 57.9433 45.8144C57.978 45.4685 58.0012 45.1399 58.0359 44.8402C58.0648 44.5405 58.0938 44.2638 58.1227 44.0101C58.1343 43.8833 58.1516 43.768 58.1632 43.6528C58.1748 43.5432 58.1921 43.4395 58.2037 43.3415C58.2269 43.1455 58.25 42.9841 58.2674 42.8458C58.3021 42.5748 58.3252 42.4365 58.3252 42.4365C58.5683 40.9263 57.5382 39.5025 56.0163 39.2604C55.9121 39.2431 55.808 39.2316 55.698 39.2258C56.0973 39.2489 56.4966 39.3526 56.8728 39.5544C58.2269 40.2807 58.7303 41.9638 57.9954 43.3127C57.8507 43.5836 57.654 43.8257 57.4399 44.0274C57.4399 44.0274 57.3357 44.1254 57.139 44.3156C57.0406 44.4079 56.9191 44.5289 56.786 44.6673C56.7165 44.7364 56.6413 44.8114 56.5603 44.8921C56.4793 44.9728 56.3982 45.0592 56.3114 45.1457C56.132 45.3244 55.9411 45.5261 55.7328 45.7452C55.5186 45.9642 55.2987 46.2063 55.0557 46.46C54.5754 46.973 54.043 47.5552 53.4701 48.195C53.4585 48.2065 53.447 48.2181 53.4354 48.2353C53.5569 49.9358 53.6553 51.9187 53.7132 54.04C53.7189 54.3109 53.7247 54.576 53.7305 54.8527C53.7363 55.1236 53.7421 55.4003 53.7479 55.677C53.7537 55.9537 53.7537 56.2304 53.7595 56.5071V56.7146V56.7665V56.8587V56.8645V56.8817L53.7652 56.9682C53.771 57.0893 53.771 57.2103 53.771 57.3371C53.771 57.5907 53.7652 57.8444 53.7479 58.0922C53.7363 58.3401 53.7132 58.588 53.6842 58.8301C53.6553 59.0722 53.6206 59.3027 53.5685 59.516C53.5222 59.7293 53.4643 59.9253 53.4065 60.0809L53.3602 60.2077L53.3428 60.2596L53.337 60.2711V60.2769L53.3312 60.2884L53.2849 60.3922L53.256 60.4614L53.2213 60.5363C53.1981 60.5824 53.175 60.6343 53.1461 60.6862C53.0419 60.8879 52.9204 61.0954 52.7931 61.3087C52.6657 61.522 52.5211 61.7353 52.3764 61.9428C52.2317 62.156 52.0755 62.3693 51.9192 62.5768C51.763 62.7844 51.601 62.9919 51.4389 63.1936C51.3753 63.2686 51.3174 63.3435 51.2538 63.4184C51.2422 63.4357 51.2248 63.4472 51.2133 63.4645L51.0686 63.6375L50.9876 63.7297C50.976 63.747 50.9586 63.7585 50.9471 63.7758C50.9644 63.7528 50.9181 63.8104 50.9239 63.8046L50.9181 63.8162L50.9008 63.8334L50.866 63.8738L50.7966 63.9545L50.6635 64.1101C50.5709 64.2139 50.4841 64.3176 50.3973 64.4214C50.2179 64.6289 50.0385 64.8307 49.8649 65.0382C48.6439 66.4331 47.4692 67.7301 46.3986 68.8599C46.4218 69.1135 46.4507 69.3556 46.4739 69.5977C46.5664 70.4566 46.6648 71.2405 46.7516 71.938C46.8442 72.6355 46.931 73.2407 47.012 73.7422C47.0525 73.9901 47.0873 74.2149 47.122 74.4109C47.1567 74.6069 47.1856 74.7683 47.2088 74.9066C47.2551 75.1775 47.2898 75.3159 47.2898 75.3159C47.6023 76.8088 46.9079 78.2787 45.6753 79.0338C45.1371 79.3912 44.5179 79.5814 43.8929 79.616C44.761 79.6564 45.6521 79.3797 46.3639 78.7687C46.7343 78.4459 47.0352 78.0539 47.2377 77.6389C47.2377 77.6389 47.3014 77.5063 47.4287 77.2642C47.4923 77.1431 47.5676 76.9933 47.6602 76.8203C47.7527 76.6474 47.8627 76.4457 47.9842 76.2266C48.2273 75.7828 48.5282 75.2467 48.8812 74.6357C49.2342 74.0304 49.6392 73.3445 50.0906 72.6067C50.9934 71.131 52.0813 69.4421 53.2907 67.6609C53.4412 67.4361 53.5974 67.2171 53.7479 66.9865C53.8231 66.877 53.9041 66.7617 53.9794 66.6464L54.0951 66.4735L54.153 66.387L54.1819 66.3467L54.1993 66.3236L54.205 66.3121C54.205 66.3121 54.2455 66.2544 54.2282 66.2775C54.2398 66.2602 54.2513 66.2487 54.2629 66.2314L54.3323 66.1334L54.4597 65.9489C54.4712 65.9316 54.4828 65.9143 54.4944 65.8971C54.5522 65.8164 54.6101 65.7414 54.6622 65.6607C54.8184 65.4532 54.9747 65.2457 55.1367 65.0382C55.2987 64.8307 55.4666 64.6347 55.6344 64.4387C55.8022 64.2427 55.97 64.0525 56.1436 63.8738C56.3172 63.6951 56.485 63.5222 56.6529 63.3723C56.6934 63.332 56.7339 63.2974 56.7744 63.2628L56.838 63.2109L56.8959 63.1648L56.9885 63.0899L57.0001 63.0841L57.0059 63.0783L57.0174 63.0726L57.0637 63.0437L57.1795 62.9688C57.3183 62.8708 57.4919 62.7671 57.6887 62.6633C57.8855 62.5595 58.0996 62.4673 58.3252 62.3751C58.5509 62.2829 58.7824 62.2022 59.0255 62.1215C59.2627 62.0408 59.5058 61.9716 59.7546 61.9082C59.8761 61.8736 59.9976 61.8448 60.1134 61.816L60.1944 61.7987L60.2117 61.7929H60.2175L60.3043 61.7698L60.3564 61.7583L60.559 61.7064C60.8309 61.6373 61.1029 61.5681 61.3691 61.5047C61.6353 61.4413 61.9073 61.3721 62.1735 61.3087C62.4397 61.2453 62.7059 61.1819 62.9663 61.1185C65.0611 60.6228 67.0286 60.202 68.7241 59.8849C69.5748 59.7235 70.3502 59.5852 71.0447 59.4699C71.3919 59.4123 71.7159 59.3604 72.0168 59.3143C72.3178 59.2682 72.5955 59.2278 72.8444 59.1932C72.9717 59.1759 73.0874 59.1586 73.1973 59.1413C73.3073 59.124 73.4115 59.1125 73.5098 59.101C73.7066 59.0722 73.8686 59.0549 74.0075 59.0376C74.2795 59.003 74.4241 58.9915 74.4241 58.9915C75.9519 58.8358 77.0745 57.4812 76.9356 55.9537Z"/><path fill="#36A9E1" d="M44.2344 71.0618C44.1129 71.1829 43.9972 71.2982 43.8872 71.4077C44.246 71.7593 44.5701 72.0706 44.8478 72.3357C45.033 72.5087 45.195 72.6643 45.3455 72.7969C45.4902 72.9294 45.6175 73.0447 45.7158 73.137C45.9184 73.3214 46.0283 73.4136 46.0283 73.4136C47.504 74.6818 47.6718 76.901 46.3987 78.3767C46.1846 78.6245 45.9357 78.8378 45.6753 79.0165C46.9137 78.2614 47.6024 76.7973 47.2899 75.2986C47.2899 75.2986 47.2609 75.1544 47.2088 74.8893C47.1857 74.7567 47.1568 74.5895 47.122 74.3936C47.0873 74.1976 47.0526 73.9728 47.0121 73.7249C46.9311 73.2234 46.8443 72.6182 46.7517 71.9207C46.6591 71.2232 46.5607 70.4393 46.4739 69.5804C46.4508 69.3383 46.4218 69.0905 46.3987 68.8426C46.2251 69.027 46.0573 69.2057 45.8894 69.3787C45.2934 70.0012 44.7379 70.5661 44.2344 71.0618Z"/><path fill="#2FAC66" d="M52.822 41.5488C52.7757 41.8543 52.7757 42.1656 52.8278 42.448C52.8278 42.448 52.8509 42.5921 52.8914 42.8573C52.9088 42.9899 52.9319 43.157 52.9609 43.353C52.9725 43.451 52.9898 43.5548 53.0014 43.6643C53.013 43.7738 53.0303 43.8948 53.0419 44.0217C53.0708 44.2695 53.1055 44.5462 53.1345 44.8517C53.1692 45.1515 53.1981 45.48 53.2329 45.8259C53.2965 46.5233 53.366 47.3073 53.4296 48.1662C53.4296 48.1835 53.4296 48.2065 53.4354 48.2238C53.447 48.2123 53.4585 48.2007 53.4701 48.1835C54.043 47.5379 54.5812 46.9614 55.0557 46.4484C55.2987 46.1948 55.5186 45.9527 55.7328 45.7336C55.9411 45.5146 56.1378 45.3129 56.3114 45.1342C56.3982 45.0419 56.485 44.9612 56.5603 44.8805C56.6413 44.7998 56.7165 44.7249 56.786 44.6557C56.9248 44.5174 57.0464 44.4021 57.139 44.3041C57.3357 44.1139 57.4399 44.0159 57.4399 44.0159C57.654 43.8141 57.8449 43.5721 57.9954 43.3011C58.7245 41.9523 58.2211 40.2691 56.8728 39.5428C56.4966 39.3411 56.0973 39.2316 55.698 39.2143C55.6865 39.2143 55.6749 39.2143 55.6633 39.2143C55.6633 39.2143 55.6633 39.2143 55.6575 39.2143C54.2803 39.1682 53.0477 40.1538 52.822 41.5488Z"/><path fill="#36A9E1" d="M44.5469 79.4604C44.3096 79.5122 44.0724 79.5353 43.8351 79.5353C43.7772 79.5353 43.7194 79.5353 43.6615 79.5295C43.4011 79.518 43.1465 79.4776 42.9034 79.4085C43.2217 79.518 43.5516 79.5814 43.8872 79.5929C44.5122 79.5641 45.1314 79.3681 45.6695 79.0107C45.3339 79.224 44.9578 79.3739 44.5469 79.4604Z"/><path fill="#008D36" d="M46.5201 78.5496C47.8222 77.0393 47.6543 74.7682 46.144 73.4655C46.144 73.4655 46.0282 73.3675 45.8199 73.183C45.7158 73.0908 45.5884 72.9755 45.438 72.8372C45.2875 72.6989 45.1197 72.5432 44.9288 72.3645C44.6394 72.0936 44.3096 71.7708 43.945 71.4134C43.5804 71.7766 43.2448 72.0936 42.9612 72.3645C42.7703 72.5432 42.6024 72.7046 42.452 72.8372C42.3015 72.9755 42.1742 73.0908 42.0701 73.183C41.8617 73.3733 41.746 73.4655 41.746 73.4655C40.2299 74.7625 40.062 77.0393 41.3699 78.5496C41.8039 79.0511 42.3478 79.4027 42.9323 79.6044C43.1811 79.6736 43.4415 79.714 43.7077 79.7255C43.7656 79.7255 43.8293 79.7313 43.8871 79.7313C44.1302 79.7313 44.3732 79.7082 44.6163 79.6563C45.0387 79.5699 45.4206 79.4142 45.7678 79.2009C46.0456 79.028 46.3002 78.809 46.5201 78.5496Z"/></g><defs><clipPath id="clip0_39_29"><rect width="88" height="116" fill="#fff"/></clipPath></defs></svg>